<?xml version="1.0" encoding="UTF-8"?>
<!DOCTYPE svg PUBLIC "-//W3C//DTD SVG 1.1//EN" "http://www.w3.org/Graphics/SVG/1.1/DTD/svg11.dtd">
<svg xmlns="http://www.w3.org/2000/svg" version="1.1" width="223px" height="223px" style="shape-rendering:geometricPrecision; text-rendering:geometricPrecision; image-rendering:optimizeQuality; fill-rule:evenodd; clip-rule:evenodd" xmlns:xlink="http://www.w3.org/1999/xlink">
<g><path style="opacity:1" fill="#b55239" d="M 112.5,-0.5 C 122.833,-0.5 133.167,-0.5 143.5,-0.5C 144.379,10.9199 142.545,11.2532 138,0.5C 137.833,1 137.667,1.5 137.5,2C 142.068,13.1094 143.568,24.6094 142,36.5C 143.773,24.2221 144.94,11.8888 145.5,-0.5C 158.5,-0.5 171.5,-0.5 184.5,-0.5C 187.836,1.46267 190.836,3.296 193.5,5C 192.003,6.87064 190.003,7.87064 187.5,8C 190.943,8.22131 191.276,9.22131 188.5,11C 188.833,11.3333 189.167,11.6667 189.5,12C 185.479,13.7647 181.479,14.2647 177.5,13.5C 177.712,17.0147 177.712,20.348 177.5,23.5C 178.5,25.1667 179.833,26.5 181.5,27.5C 177.962,28.6451 177.628,30.4784 180.5,33C 178.925,32.621 177.425,32.7877 176,33.5C 175.667,30.1667 175.333,26.8333 175,23.5C 173.189,26.3965 173.022,29.3965 174.5,32.5C 174.332,34.1705 173.665,35.5039 172.5,36.5C 171.444,30.4406 170.11,24.4406 168.5,18.5C 170.564,14.991 170.897,11.3243 169.5,7.5C 168.522,7.97665 167.689,8.64332 167,9.5C 166.755,7.3367 165.755,5.67003 164,4.5C 164.962,10.8926 164.462,17.2259 162.5,23.5C 162.482,25.3726 162.982,25.7059 164,24.5C 164.667,33.8333 164.667,43.1667 164,52.5C 163.764,55.2084 162.931,57.7084 161.5,60C 162.072,62.2913 162.406,64.6246 162.5,67C 161.574,73.1966 160.574,79.3633 159.5,85.5C 158.5,85.5 157.5,85.5 156.5,85.5C 156.181,90.3633 156.514,95.03 157.5,99.5C 156.192,103.4 155.192,107.4 154.5,111.5C 151.504,114.497 149.837,118.164 149.5,122.5C 148.89,123.391 148.557,124.391 148.5,125.5C 147.542,125.953 146.708,126.619 146,127.5C 145.95,125.256 145.117,123.589 143.5,122.5C 147.731,110.909 150.731,98.9089 152.5,86.5C 152.457,85.5836 152.124,84.9169 151.5,84.5C 153.302,77.7195 154.969,70.8862 156.5,64C 156.472,62.9302 156.139,62.0968 155.5,61.5C 154.978,56.2436 154.811,50.9102 155,45.5C 154.072,41.7023 152.572,38.2023 150.5,35C 153.273,32.2087 152.607,30.3754 148.5,29.5C 147.167,30.8333 145.833,32.1667 144.5,33.5C 143.122,38.3992 142.288,43.3992 142,48.5C 141.617,49.056 141.117,49.3893 140.5,49.5C 140.572,46.8067 140.905,44.1401 141.5,41.5C 139.139,34.1745 137.472,26.6745 136.5,19C 134.306,16.4506 132.472,13.6173 131,10.5C 131.189,16.805 131.355,23.1384 131.5,29.5C 131.5,30.5 131.5,31.5 131.5,32.5C 130.834,35.3583 130.167,38.3583 129.5,41.5C 127.911,35.9692 126.911,30.3025 126.5,24.5C 125.166,21.1608 123.833,17.8274 122.5,14.5C 123.48,12.392 123.146,10.392 121.5,8.5C 119.775,7.9851 118.108,7.31844 116.5,6.5C 115.725,4.60365 114.725,2.93698 113.5,1.5C 112.662,1.15829 112.328,0.491622 112.5,-0.5 Z"/></g>
<g><path style="opacity:0.039" fill="#bf6f5c" d="M 201.5,-0.5 C 202.5,-0.5 203.5,-0.5 204.5,-0.5C 205.703,3.11013 206.703,6.7768 207.5,10.5C 206.5,9.83333 205.5,9.16667 204.5,8.5C 203.787,5.40612 202.787,2.40612 201.5,-0.5 Z"/></g>
<g><path style="opacity:0.949" fill="#89382a" d="M 24.5,-0.5 C 25.8333,-0.5 27.1667,-0.5 28.5,-0.5C 27.8112,0.70722 27.6446,2.04055 28,3.5C 25.5828,6.40205 23.4161,9.40205 21.5,12.5C 18.8517,12.7385 17.0183,14.0718 16,16.5C 15.8333,16 15.6667,15.5 15.5,15C 18.556,11.0477 21.2227,6.88106 23.5,2.5C 23.5569,1.39105 23.8902,0.391047 24.5,-0.5 Z"/></g>
<g><path style="opacity:1" fill="#b37c5b" d="M 100.5,-0.5 C 101.167,-0.5 101.833,-0.5 102.5,-0.5C 102.5,3.16667 102.5,6.83333 102.5,10.5C 101.475,7.02637 100.808,3.35971 100.5,-0.5 Z"/></g>
<g><path style="opacity:1" fill="#a8412b" d="M 28.5,-0.5 C 35.8333,-0.5 43.1667,-0.5 50.5,-0.5C 48.6783,1.40402 47.0117,3.40402 45.5,5.5C 43.8333,5.5 42.1667,5.5 40.5,5.5C 40.719,6.67504 40.3857,7.67504 39.5,8.5C 34.627,9.46524 31.9604,12.4652 31.5,17.5C 30.4763,16.1468 29.143,15.4802 27.5,15.5C 27.3285,17.4918 27.9951,19.1585 29.5,20.5C 26.8273,24.3496 23.9939,24.3496 21,20.5C 20.5172,19.552 20.3505,18.552 20.5,17.5C 21.3007,15.9582 21.634,14.2915 21.5,12.5C 23.4161,9.40205 25.5828,6.40205 28,3.5C 27.6446,2.04055 27.8112,0.70722 28.5,-0.5 Z"/></g>
<g><path style="opacity:1" fill="#db7b4a" d="M 61.5,-0.5 C 64.8333,-0.5 68.1667,-0.5 71.5,-0.5C 69.783,6.75261 68.4497,14.0859 67.5,21.5C 66.1401,20.8201 64.8068,20.1534 63.5,19.5C 58.6134,18.1225 53.6134,17.2892 48.5,17C 52.4769,10.8695 56.8102,5.03614 61.5,-0.5 Z"/></g>
<g><path style="opacity:1" fill="#a04126" d="M 71.5,-0.5 C 79.1667,-0.5 86.8333,-0.5 94.5,-0.5C 94.7847,2.82909 94.1181,5.82909 92.5,8.5C 89.5129,12.9734 87.1796,18.3067 85.5,24.5C 85.665,21.1501 85.4983,17.8168 85,14.5C 83.2434,14.8671 81.7434,14.0338 80.5,12C 80.8333,11.6667 81.1667,11.3333 81.5,11C 80.1509,10.2276 79.3176,9.06092 79,7.5C 77.3547,7.69317 75.5213,7.85983 73.5,8C 70.7143,13.6151 69.7143,19.4484 70.5,25.5C 71.086,25.2907 71.586,24.9574 72,24.5C 72.3195,28.2142 72.8195,31.8809 73.5,35.5C 73.1667,35.5 72.8333,35.5 72.5,35.5C 71.9779,37.2191 70.9779,38.5525 69.5,39.5C 69.0668,34.1674 68.5668,28.834 68,23.5C 66.3484,22.6006 64.8484,21.6006 63.5,20.5C 63.5,20.1667 63.5,19.8333 63.5,19.5C 64.8068,20.1534 66.1401,20.8201 67.5,21.5C 68.4497,14.0859 69.783,6.75261 71.5,-0.5 Z"/></g>
<g><path style="opacity:1" fill="#d8865a" d="M 111.5,-0.5 C 111.833,-0.5 112.167,-0.5 112.5,-0.5C 112.328,0.491622 112.662,1.15829 113.5,1.5C 114.261,5.78426 115.595,9.78426 117.5,13.5C 117.5,14.1667 117.5,14.8333 117.5,15.5C 115.292,14.1064 113.792,12.1064 113,9.5C 112.329,8.74756 111.496,8.41423 110.5,8.5C 110.5,8.16667 110.5,7.83333 110.5,7.5C 111.473,5.0521 111.806,2.38544 111.5,-0.5 Z"/></g>
<g><path style="opacity:1" fill="#a85039" d="M 172.5,36.5 C 173.349,39.0351 174.349,41.5351 175.5,44C 175.355,44.772 175.022,45.4387 174.5,46C 177.581,46.5267 180.581,47.36 183.5,48.5C 185.512,48.1604 187.512,47.8271 189.5,47.5C 189.67,48.8221 189.337,49.9887 188.5,51C 191.405,53.3535 193.405,56.3535 194.5,60C 193.525,65.7412 193.192,71.5746 193.5,77.5C 192.167,77.5 190.833,77.5 189.5,77.5C 194.169,65.6744 191.169,56.5077 180.5,50C 177.779,49.3985 175.113,49.5651 172.5,50.5C 172.665,47.1501 172.498,43.8168 172,40.5C 171.768,39.2625 171.268,38.2625 170.5,37.5C 169.788,30.437 168.621,23.437 167,16.5C 165.577,26.4203 165.077,36.4203 165.5,46.5C 165.198,49.0593 165.532,51.3926 166.5,53.5C 164.917,63.148 163.251,72.8147 161.5,82.5C 161.167,83.8333 160.833,85.1667 160.5,86.5C 159.699,88.0418 159.366,89.7085 159.5,91.5C 158.469,93.9608 157.802,96.6275 157.5,99.5C 156.514,95.03 156.181,90.3633 156.5,85.5C 157.5,85.5 158.5,85.5 159.5,85.5C 160.574,79.3633 161.574,73.1966 162.5,67C 162.406,64.6246 162.072,62.2913 161.5,60C 162.931,57.7084 163.764,55.2084 164,52.5C 164.667,43.1667 164.667,33.8333 164,24.5C 162.982,25.7059 162.482,25.3726 162.5,23.5C 164.462,17.2259 164.962,10.8926 164,4.5C 165.755,5.67003 166.755,7.3367 167,9.5C 167.689,8.64332 168.522,7.97665 169.5,7.5C 170.897,11.3243 170.564,14.991 168.5,18.5C 170.11,24.4406 171.444,30.4406 172.5,36.5 Z"/></g>
<g><path style="opacity:1" fill="#a94c32" d="M 103.5,-0.5 C 106.167,-0.5 108.833,-0.5 111.5,-0.5C 111.806,2.38544 111.473,5.0521 110.5,7.5C 108.651,12.8845 107.484,18.5512 107,24.5C 105.019,26.3591 104.019,28.6924 104,31.5C 103.5,20.8385 103.333,10.1719 103.5,-0.5 Z"/></g>
<g><path style="opacity:1" fill="#cc7751" d="M 51.5,6.5 C 49.5227,9.77788 47.5227,13.1112 45.5,16.5C 44.1502,17.9501 42.4835,18.6168 40.5,18.5C 40.3505,17.448 40.5172,16.448 41,15.5C 44.6244,12.6106 48.1244,9.61057 51.5,6.5 Z"/></g>
<g><path style="opacity:1" fill="#81371e" d="M 57.5,-0.5 C 58.8333,-0.5 60.1667,-0.5 61.5,-0.5C 56.8102,5.03614 52.4769,10.8695 48.5,17C 53.6134,17.2892 58.6134,18.1225 63.5,19.5C 63.5,19.8333 63.5,20.1667 63.5,20.5C 57.8308,19.3714 52.1641,19.3714 46.5,20.5C 44.4409,23.5406 42.4409,26.5406 40.5,29.5C 40.7678,27.901 40.4345,26.5676 39.5,25.5C 39.448,23.0971 39.7814,20.7638 40.5,18.5C 42.4835,18.6168 44.1502,17.9501 45.5,16.5C 47.5227,13.1112 49.5227,9.77788 51.5,6.5C 54.2128,4.78649 56.2128,2.45315 57.5,-0.5 Z"/></g>
<g><path style="opacity:0.851" fill="#82393a" d="M 23.5,2.5 C 21.2227,6.88106 18.556,11.0477 15.5,15C 15.6667,15.5 15.8333,16 16,16.5C 17.0183,14.0718 18.8517,12.7385 21.5,12.5C 21.634,14.2915 21.3007,15.9582 20.5,17.5C 20.1667,17.5 19.8333,17.5 19.5,17.5C 19.6495,16.448 19.4828,15.448 19,14.5C 14.966,20.1562 10.7993,25.3229 6.5,30C 10.2866,19.5778 15.9533,10.4111 23.5,2.5 Z"/></g>
<g><path style="opacity:1" fill="#f5d8bc" d="M 110.5,8.5 C 111.496,8.41423 112.329,8.74756 113,9.5C 113.792,12.1064 115.292,14.1064 117.5,15.5C 119.695,20.0846 121.695,24.7513 123.5,29.5C 118.597,27.7539 113.597,26.4206 108.5,25.5C 108.84,19.792 109.507,14.1253 110.5,8.5 Z"/></g>
<g><path style="opacity:1" fill="#9c4930" d="M 140.5,49.5 C 139.833,47.8333 139.167,46.1667 138.5,44.5C 138.483,42.4352 138.15,40.4352 137.5,38.5C 138.443,36.9988 138.109,35.6654 136.5,34.5C 135.05,30.0344 133.884,25.3677 133,20.5C 132.502,23.4816 132.335,26.4816 132.5,29.5C 132.167,29.5 131.833,29.5 131.5,29.5C 131.355,23.1384 131.189,16.805 131,10.5C 132.472,13.6173 134.306,16.4506 136.5,19C 137.472,26.6745 139.139,34.1745 141.5,41.5C 140.905,44.1401 140.572,46.8067 140.5,49.5 Z"/></g>
<g><path style="opacity:1" fill="#a5523b" d="M 113.5,1.5 C 114.725,2.93698 115.725,4.60365 116.5,6.5C 118.108,7.31844 119.775,7.9851 121.5,8.5C 123.146,10.392 123.48,12.392 122.5,14.5C 123.833,17.8274 125.166,21.1608 126.5,24.5C 126.911,30.3025 127.911,35.9692 129.5,41.5C 130.167,38.3583 130.834,35.3583 131.5,32.5C 131.5,37.1667 131.5,41.8333 131.5,46.5C 131.5,46.8333 131.5,47.1667 131.5,47.5C 130.778,47.9175 130.278,48.5842 130,49.5C 129.243,47.6854 128.41,46.0188 127.5,44.5C 126.833,44.5 126.5,44.1667 126.5,43.5C 127.116,42.7978 127.116,41.7978 126.5,40.5C 126.44,37.6592 125.774,34.9925 124.5,32.5C 125.167,32.5 125.5,32.1667 125.5,31.5C 124.382,24.6459 122.549,17.9792 120,11.5C 119.833,12 119.667,12.5 119.5,13C 120.33,14.4651 120.496,15.9651 120,17.5C 119.392,15.9336 118.558,14.6002 117.5,13.5C 115.595,9.78426 114.261,5.78426 113.5,1.5 Z"/></g>
<g><path style="opacity:1" fill="#9b3f2d" d="M 45.5,5.5 C 40.871,11.1355 36.2043,16.8022 31.5,22.5C 26.3522,28.7632 21.1855,35.0965 16,41.5C 15.6667,41.1667 15.3333,40.8333 15,40.5C 14.235,42.0657 14.4017,43.3991 15.5,44.5C 15.44,45.0431 15.1067,45.3764 14.5,45.5C 13.6244,35.6783 15.2911,26.3449 19.5,17.5C 19.8333,17.5 20.1667,17.5 20.5,17.5C 20.3505,18.552 20.5172,19.552 21,20.5C 23.9939,24.3496 26.8273,24.3496 29.5,20.5C 27.9951,19.1585 27.3285,17.4918 27.5,15.5C 29.143,15.4802 30.4763,16.1468 31.5,17.5C 31.9604,12.4652 34.627,9.46524 39.5,8.5C 40.3857,7.67504 40.719,6.67504 40.5,5.5C 42.1667,5.5 43.8333,5.5 45.5,5.5 Z"/></g>
<g><path style="opacity:1" fill="#a84228" d="M 85.5,24.5 C 82.7992,28.2496 81.4658,32.5829 81.5,37.5C 79.4108,40.4368 77.9108,43.7701 77,47.5C 76.7216,46.5842 76.2216,45.9175 75.5,45.5C 73.9886,42.4557 73.322,39.1224 73.5,35.5C 72.8195,31.8809 72.3195,28.2142 72,24.5C 71.586,24.9574 71.086,25.2907 70.5,25.5C 69.7143,19.4484 70.7143,13.6151 73.5,8C 75.5213,7.85983 77.3547,7.69317 79,7.5C 79.3176,9.06092 80.1509,10.2276 81.5,11C 81.1667,11.3333 80.8333,11.6667 80.5,12C 81.7434,14.0338 83.2434,14.8671 85,14.5C 85.4983,17.8168 85.665,21.1501 85.5,24.5 Z"/></g>
<g><path style="opacity:1" fill="#793720" d="M 92.5,8.5 C 90.1921,18.7652 86.5254,28.4318 81.5,37.5C 81.4658,32.5829 82.7992,28.2496 85.5,24.5C 87.1796,18.3067 89.5129,12.9734 92.5,8.5 Z"/></g>
<g><path style="opacity:1" fill="#6b3129" d="M 170.5,37.5 C 169.883,37.3893 169.383,37.056 169,36.5C 168.814,34.0995 168.314,31.7662 167.5,29.5C 166.833,35.3195 166.167,40.9861 165.5,46.5C 165.077,36.4203 165.577,26.4203 167,16.5C 168.621,23.437 169.788,30.437 170.5,37.5 Z"/></g>
<g><path style="opacity:1" fill="#903f2a" d="M 143.5,-0.5 C 144.167,-0.5 144.833,-0.5 145.5,-0.5C 144.94,11.8888 143.773,24.2221 142,36.5C 143.568,24.6094 142.068,13.1094 137.5,2C 137.667,1.5 137.833,1 138,0.5C 142.545,11.2532 144.379,10.9199 143.5,-0.5 Z"/></g>
<g><path style="opacity:1" fill="#803f2d" d="M 125.5,31.5 C 124.833,30.8333 124.167,30.1667 123.5,29.5C 121.695,24.7513 119.695,20.0846 117.5,15.5C 117.5,14.8333 117.5,14.1667 117.5,13.5C 118.558,14.6002 119.392,15.9336 120,17.5C 120.496,15.9651 120.33,14.4651 119.5,13C 119.667,12.5 119.833,12 120,11.5C 122.549,17.9792 124.382,24.6459 125.5,31.5 Z"/></g>
<g><path style="opacity:1" fill="#e19573" d="M 136.5,34.5 C 135.207,35.6448 134.041,35.3115 133,33.5C 132.51,32.2068 132.343,30.8734 132.5,29.5C 132.335,26.4816 132.502,23.4816 133,20.5C 133.884,25.3677 135.05,30.0344 136.5,34.5 Z"/></g>
<g><path style="opacity:1" fill="#a15938" d="M 61.5,33.5 C 58.2094,30.1896 54.2094,28.523 49.5,28.5C 49.0825,27.7784 48.4158,27.2784 47.5,27C 52.4524,26.3157 56.9524,27.4823 61,30.5C 61.4828,31.448 61.6495,32.448 61.5,33.5 Z"/></g>
<g><path style="opacity:1" fill="#5d3f32" d="M 108.5,25.5 C 113.597,26.4206 118.597,27.7539 123.5,29.5C 124.167,30.1667 124.833,30.8333 125.5,31.5C 125.5,32.1667 125.167,32.5 124.5,32.5C 119.107,30.0685 113.44,28.7352 107.5,28.5C 108.11,27.609 108.443,26.609 108.5,25.5 Z"/></g>
<g><path style="opacity:1" fill="#de7c4b" d="M 63.5,20.5 C 64.8484,21.6006 66.3484,22.6006 68,23.5C 68.5668,28.834 69.0668,34.1674 69.5,39.5C 68.0413,39.5674 66.7079,39.2341 65.5,38.5C 64.9202,36.2512 63.5869,34.5846 61.5,33.5C 61.6495,32.448 61.4828,31.448 61,30.5C 56.9524,27.4823 52.4524,26.3157 47.5,27C 48.4158,27.2784 49.0825,27.7784 49.5,28.5C 46.8021,28.8449 44.8021,30.1782 43.5,32.5C 42.5,32.5 41.5,32.5 40.5,32.5C 40.5,31.5 40.5,30.5 40.5,29.5C 42.4409,26.5406 44.4409,23.5406 46.5,20.5C 52.1641,19.3714 57.8308,19.3714 63.5,20.5 Z"/></g>
<g><path style="opacity:1" fill="#fae1c3" d="M 94.5,-0.5 C 96.5,-0.5 98.5,-0.5 100.5,-0.5C 100.808,3.35971 101.475,7.02637 102.5,10.5C 102.5,15.5 102.5,20.5 102.5,25.5C 93.1667,25.8333 93.1667,26.1667 102.5,26.5C 102.702,28.9496 102.369,31.283 101.5,33.5C 96.6241,32.4044 94.9574,34.0711 96.5,38.5C 97.6888,39.4287 99.0222,39.762 100.5,39.5C 99.9524,41.3936 98.9524,43.0603 97.5,44.5C 97.8457,45.6956 98.3457,45.6956 99,44.5C 99.4828,45.448 99.6495,46.448 99.5,47.5C 98.7419,55.0625 100.242,62.0625 104,68.5C 105.948,69.1094 107.782,69.776 109.5,70.5C 108.448,70.3505 107.448,70.5172 106.5,71C 112.184,73.8407 118.184,75.3407 124.5,75.5C 129.546,75.5557 131.88,78.2223 131.5,83.5C 130.707,87.8797 129.707,92.2131 128.5,96.5C 124.817,100.025 121.65,104.025 119,108.5C 115.932,111.083 112.765,113.416 109.5,115.5C 104.451,116.94 99.4507,118.44 94.5,120C 91.8333,120.667 89.1667,120.667 86.5,120C 85.5767,117.14 84.5767,114.307 83.5,111.5C 83.2413,108.728 82.2413,106.395 80.5,104.5C 78.3432,103.593 76.0098,102.927 73.5,102.5C 72.2431,100.632 72.5764,98.9653 74.5,97.5C 72.8975,95.292 71.5642,92.9587 70.5,90.5C 70.722,88.9446 71.3887,87.6113 72.5,86.5C 70.3134,84.5784 67.9801,82.9117 65.5,81.5C 60.4825,79.1328 60.3158,76.4662 65,73.5C 65.6667,72.8333 65.6667,72.1667 65,71.5C 63.2962,73.3734 61.4628,75.0401 59.5,76.5C 58.7354,76.9234 57.9021,77.2568 57,77.5C 55.3566,76.6854 53.8566,75.6854 52.5,74.5C 51.7036,71.4441 50.7036,68.4441 49.5,65.5C 49.8457,64.1508 50.179,62.8175 50.5,61.5C 55.3633,61.8195 60.03,61.4861 64.5,60.5C 65.9663,59.653 66.7996,58.3197 67,56.5C 67.4992,51.8452 67.6658,47.1785 67.5,42.5C 68.1515,41.9094 68.8182,41.2427 69.5,40.5C 71.0152,42.5473 71.8485,44.8807 72,47.5C 72.4988,43.5138 72.6655,39.5138 72.5,35.5C 72.8333,35.5 73.1667,35.5 73.5,35.5C 73.322,39.1224 73.9886,42.4557 75.5,45.5C 75.1437,48.5641 75.9771,51.2307 78,53.5C 79.1724,48.1463 80.3391,42.813 81.5,37.5C 86.5254,28.4318 90.1921,18.7652 92.5,8.5C 94.1181,5.82909 94.7847,2.82909 94.5,-0.5 Z"/></g>
<g><path style="opacity:1" fill="#89452d" d="M 102.5,-0.5 C 102.833,-0.5 103.167,-0.5 103.5,-0.5C 103.333,10.1719 103.5,20.8385 104,31.5C 104.019,28.6924 105.019,26.3591 107,24.5C 107.484,18.5512 108.651,12.8845 110.5,7.5C 110.5,7.83333 110.5,8.16667 110.5,8.5C 109.507,14.1253 108.84,19.792 108.5,25.5C 108.443,26.609 108.11,27.609 107.5,28.5C 106.89,29.391 106.557,30.391 106.5,31.5C 105.549,32.9187 105.216,34.5853 105.5,36.5C 104.833,36.5 104.5,36.8333 104.5,37.5C 103.833,38.1667 103.167,38.8333 102.5,39.5C 101.833,39.5 101.167,39.5 100.5,39.5C 100.517,37.4352 100.85,35.4352 101.5,33.5C 102.369,31.283 102.702,28.9496 102.5,26.5C 93.1667,26.1667 93.1667,25.8333 102.5,25.5C 102.5,20.5 102.5,15.5 102.5,10.5C 102.5,6.83333 102.5,3.16667 102.5,-0.5 Z"/></g>
<g><path style="opacity:1" fill="#531512" d="M 31.5,22.5 C 31.5,23.5 31.5,24.5 31.5,25.5C 27.2488,30.3567 23.2488,35.3567 19.5,40.5C 19.5,40.8333 19.5,41.1667 19.5,41.5C 18.1667,42.5 16.8333,43.5 15.5,44.5C 14.4017,43.3991 14.235,42.0657 15,40.5C 15.3333,40.8333 15.6667,41.1667 16,41.5C 21.1855,35.0965 26.3522,28.7632 31.5,22.5 Z"/></g>
<g><path style="opacity:1" fill="#f9e0c2" d="M 107.5,28.5 C 113.44,28.7352 119.107,30.0685 124.5,32.5C 125.774,34.9925 126.44,37.6592 126.5,40.5C 122.423,39.6297 118.423,38.4631 114.5,37C 113.309,36.3021 112.309,35.4687 111.5,34.5C 108.966,34.7409 107.3,33.7409 106.5,31.5C 106.557,30.391 106.89,29.391 107.5,28.5 Z"/></g>
<g><path style="opacity:1" fill="#cd8665" d="M 106.5,31.5 C 107.3,33.7409 108.966,34.7409 111.5,34.5C 110.01,36.2798 108.01,36.9465 105.5,36.5C 105.216,34.5853 105.549,32.9187 106.5,31.5 Z"/></g>
<g><path style="opacity:1" fill="#723a2a" d="M 131.5,29.5 C 131.833,29.5 132.167,29.5 132.5,29.5C 132.343,30.8734 132.51,32.2068 133,33.5C 134.041,35.3115 135.207,35.6448 136.5,34.5C 138.109,35.6654 138.443,36.9988 137.5,38.5C 136.833,38.1667 136.167,37.8333 135.5,37.5C 134.85,37.1961 134.183,36.8627 133.5,36.5C 132.52,39.0865 132.187,41.7531 132.5,44.5C 132.5,45.1667 132.5,45.8333 132.5,46.5C 132.167,46.5 131.833,46.5 131.5,46.5C 131.5,41.8333 131.5,37.1667 131.5,32.5C 131.5,31.5 131.5,30.5 131.5,29.5 Z"/></g>
<g><path style="opacity:1" fill="#893d33" d="M 31.5,25.5 C 32.0431,25.56 32.3764,25.8933 32.5,26.5C 29.0815,31.6682 25.9148,37.0016 23,42.5C 22.1237,44.6355 20.6237,45.9688 18.5,46.5C 18.6287,44.7839 18.962,43.1172 19.5,41.5C 20.8333,41.1667 20.8333,40.8333 19.5,40.5C 23.2488,35.3567 27.2488,30.3567 31.5,25.5 Z"/></g>
<g><path style="opacity:1" fill="#dc8b5e" d="M 101.5,33.5 C 100.85,35.4352 100.517,37.4352 100.5,39.5C 99.0222,39.762 97.6888,39.4287 96.5,38.5C 94.9574,34.0711 96.6241,32.4044 101.5,33.5 Z"/></g>
<g><path style="opacity:1" fill="#241213" d="M 49.5,28.5 C 54.2094,28.523 58.2094,30.1896 61.5,33.5C 63.5869,34.5846 64.9202,36.2512 65.5,38.5C 63.5023,38.6618 61.5023,37.9951 59.5,36.5C 58.3734,35.8783 57.3734,35.045 56.5,34C 55.2506,33.2599 54.2506,33.4265 53.5,34.5C 50.9136,39.863 50.9136,45.1963 53.5,50.5C 53.5,51.1667 53.5,51.8333 53.5,52.5C 53.9321,53.7095 54.5987,54.7095 55.5,55.5C 55.5,55.8333 55.5,56.1667 55.5,56.5C 56.9196,59.3489 58.9196,60.0156 61.5,58.5C 61.5,57.8333 61.8333,57.5 62.5,57.5C 62.8333,57.5 63.1667,57.5 63.5,57.5C 63.2627,58.791 63.596,59.791 64.5,60.5C 60.03,61.4861 55.3633,61.8195 50.5,61.5C 49.7326,60.828 49.0659,59.9947 48.5,59C 48.7284,58.6012 49.0618,58.4346 49.5,58.5C 51.3519,59.0889 53.1852,59.7556 55,60.5C 55.1667,60.1667 55.3333,59.8333 55.5,59.5C 49.593,50.5669 48.2596,41.0669 51.5,31C 49.0966,30.3698 47.2633,31.2031 46,33.5C 44.7114,36.3508 44.2114,39.3508 44.5,42.5C 42.8958,41.713 42.2291,40.3797 42.5,38.5C 42.3253,36.3792 42.6586,34.3792 43.5,32.5C 44.8021,30.1782 46.8021,28.8449 49.5,28.5 Z"/></g>
<g><path style="opacity:1" fill="#d3b6a1" d="M 111.5,34.5 C 112.309,35.4687 113.309,36.3021 114.5,37C 118.423,38.4631 122.423,39.6297 126.5,40.5C 127.116,41.7978 127.116,42.7978 126.5,43.5C 119.317,40.6031 111.984,38.6031 104.5,37.5C 104.5,36.8333 104.833,36.5 105.5,36.5C 108.01,36.9465 110.01,36.2798 111.5,34.5 Z"/></g>
<g><path style="opacity:0.812" fill="#782a2a" d="M 209.5,18.5 C 212.278,29.0311 214.945,39.6977 217.5,50.5C 215.186,47.2046 213.352,43.538 212,39.5C 210.578,32.5621 209.745,25.5621 209.5,18.5 Z"/></g>
<g><path style="opacity:1" fill="#794f49" d="M 100.5,39.5 C 101.167,39.5 101.833,39.5 102.5,39.5C 102.328,40.4916 102.662,41.1583 103.5,41.5C 102.833,42.8333 102.167,44.1667 101.5,45.5C 101.167,46.5 100.5,47.1667 99.5,47.5C 99.6495,46.448 99.4828,45.448 99,44.5C 98.3457,45.6956 97.8457,45.6956 97.5,44.5C 98.9524,43.0603 99.9524,41.3936 100.5,39.5 Z"/></g>
<g><path style="opacity:1" fill="#d29370" d="M 135.5,37.5 C 136.167,37.8333 136.833,38.1667 137.5,38.5C 138.15,40.4352 138.483,42.4352 138.5,44.5C 138.5,46.1667 138.5,47.8333 138.5,49.5C 137.833,49.5 137.5,49.1667 137.5,48.5C 137.309,44.7379 136.642,41.0712 135.5,37.5 Z"/></g>
<g><path style="opacity:1" fill="#ac2722" d="M 53.5,34.5 C 55.7224,34.5587 56.7224,35.7253 56.5,38C 55.6898,41.7921 55.3564,45.6255 55.5,49.5C 54.8333,49.8333 54.1667,50.1667 53.5,50.5C 50.9136,45.1963 50.9136,39.863 53.5,34.5 Z"/></g>
<g><path style="opacity:1" fill="#8a624e" d="M 72.5,35.5 C 72.6655,39.5138 72.4988,43.5138 72,47.5C 71.8485,44.8807 71.0152,42.5473 69.5,40.5C 68.8182,41.2427 68.1515,41.9094 67.5,42.5C 66.3995,41.3951 65.7329,40.0618 65.5,38.5C 66.7079,39.2341 68.0413,39.5674 69.5,39.5C 70.9779,38.5525 71.9779,37.2191 72.5,35.5 Z"/></g>
<g><path style="opacity:1" fill="#582b29" d="M 170.5,37.5 C 171.268,38.2625 171.768,39.2625 172,40.5C 172.498,43.8168 172.665,47.1501 172.5,50.5C 170.517,51.4706 168.517,52.4706 166.5,53.5C 165.532,51.3926 165.198,49.0593 165.5,46.5C 166.167,40.9861 166.833,35.3195 167.5,29.5C 168.314,31.7662 168.814,34.0995 169,36.5C 169.383,37.056 169.883,37.3893 170.5,37.5 Z"/></g>
<g><path style="opacity:1" fill="#acafc7" d="M 111.5,45.5 C 111.03,44.3065 110.03,43.6399 108.5,43.5C 106.068,43.8864 103.734,44.5531 101.5,45.5C 102.167,44.1667 102.833,42.8333 103.5,41.5C 107.123,40.2418 110.79,40.2418 114.5,41.5C 113.479,42.9014 112.479,44.2347 111.5,45.5 Z"/></g>
<g><path style="opacity:1" fill="#dbced4" d="M 59.5,36.5 C 61.5023,37.9951 63.5023,38.6618 65.5,38.5C 65.7329,40.0618 66.3995,41.3951 67.5,42.5C 67.6658,47.1785 67.4992,51.8452 67,56.5C 66.7996,58.3197 65.9663,59.653 64.5,60.5C 63.596,59.791 63.2627,58.791 63.5,57.5C 64.1174,57.3893 64.6174,57.056 65,56.5C 65.8265,52.4589 65.6599,48.4589 64.5,44.5C 63.8182,45.2427 63.1515,45.9094 62.5,46.5C 59.7945,45.3104 58.1279,43.1437 57.5,40C 57.9783,38.6974 58.645,37.5307 59.5,36.5 Z"/></g>
<g><path style="opacity:1" fill="#411c1a" d="M 50.5,-0.5 C 52.8333,-0.5 55.1667,-0.5 57.5,-0.5C 56.2128,2.45315 54.2128,4.78649 51.5,6.5C 48.1244,9.61057 44.6244,12.6106 41,15.5C 40.5172,16.448 40.3505,17.448 40.5,18.5C 39.7814,20.7638 39.448,23.0971 39.5,25.5C 39.6427,27.2624 39.3094,28.9291 38.5,30.5C 39.5914,38.7777 40.2581,47.111 40.5,55.5C 36.9339,54.2368 35.9339,55.4034 37.5,59C 36.5399,60.4194 35.7065,61.9194 35,63.5C 33.7834,61.4798 33.6167,59.4798 34.5,57.5C 31.4256,54.3243 30.7589,50.6577 32.5,46.5C 34.1128,45.5726 35.7795,44.7393 37.5,44C 37.302,40.625 35.6354,38.4583 32.5,37.5C 30.4229,38.9371 28.0895,39.6038 25.5,39.5C 25.0059,44.8062 23.0059,49.4728 19.5,53.5C 18.5745,52.3595 17.7412,52.3595 17,53.5C 16.5357,52.9056 16.369,52.2389 16.5,51.5C 16.4021,49.4471 17.0687,47.7804 18.5,46.5C 20.6237,45.9688 22.1237,44.6355 23,42.5C 25.9148,37.0016 29.0815,31.6682 32.5,26.5C 32.3764,25.8933 32.0431,25.56 31.5,25.5C 31.5,24.5 31.5,23.5 31.5,22.5C 36.2043,16.8022 40.871,11.1355 45.5,5.5C 47.0117,3.40402 48.6783,1.40402 50.5,-0.5 Z"/></g>
<g><path style="opacity:1" fill="#261516" d="M 104.5,37.5 C 111.984,38.6031 119.317,40.6031 126.5,43.5C 126.5,44.1667 126.833,44.5 127.5,44.5C 127.5,45.5 127.5,46.5 127.5,47.5C 125.938,47.7329 124.605,48.3995 123.5,49.5C 122.311,44.83 119.478,43.4967 115,45.5C 113.991,47.0249 113.491,48.6916 113.5,50.5C 112.167,54.1667 112.167,57.8333 113.5,61.5C 112.375,62.6522 112.375,63.6522 113.5,64.5C 113.599,67.5857 114.932,69.919 117.5,71.5C 119.948,72.4731 122.615,72.8064 125.5,72.5C 125.821,74.0481 126.821,74.7148 128.5,74.5C 127.432,75.4345 126.099,75.7678 124.5,75.5C 118.184,75.3407 112.184,73.8407 106.5,71C 107.448,70.5172 108.448,70.3505 109.5,70.5C 110.978,70.762 112.311,70.4287 113.5,69.5C 110.467,61.7051 109.8,53.7051 111.5,45.5C 112.479,44.2347 113.479,42.9014 114.5,41.5C 110.79,40.2418 107.123,40.2418 103.5,41.5C 102.662,41.1583 102.328,40.4916 102.5,39.5C 103.167,38.8333 103.833,38.1667 104.5,37.5 Z"/></g>
<g><path style="opacity:1" fill="#9d3834" d="M 123.5,49.5 C 122.292,50.2341 120.959,50.5674 119.5,50.5C 122.135,48.0505 121.468,46.3838 117.5,45.5C 115.918,47.0147 114.584,48.6814 113.5,50.5C 113.491,48.6916 113.991,47.0249 115,45.5C 119.478,43.4967 122.311,44.83 123.5,49.5 Z"/></g>
<g><path style="opacity:1" fill="#b39a88" d="M 132.5,44.5 C 134.167,45.8333 135.833,47.1667 137.5,48.5C 137.5,49.1667 137.833,49.5 138.5,49.5C 138.672,50.4916 138.338,51.1583 137.5,51.5C 135.5,50.1667 133.833,48.5 132.5,46.5C 132.5,45.8333 132.5,45.1667 132.5,44.5 Z"/></g>
<g><path style="opacity:1" fill="#f7d3b6" d="M 135.5,37.5 C 136.642,41.0712 137.309,44.7379 137.5,48.5C 135.833,47.1667 134.167,45.8333 132.5,44.5C 132.187,41.7531 132.52,39.0865 133.5,36.5C 134.183,36.8627 134.85,37.1961 135.5,37.5 Z"/></g>
<g><path style="opacity:1" fill="#d27f58" d="M 42.5,38.5 C 42.2291,40.3797 42.8958,41.713 44.5,42.5C 45.5602,48.0891 47.2268,53.4224 49.5,58.5C 49.0618,58.4346 48.7284,58.6012 48.5,59C 49.0659,59.9947 49.7326,60.828 50.5,61.5C 50.179,62.8175 49.8457,64.1508 49.5,65.5C 50.7036,68.4441 51.7036,71.4441 52.5,74.5C 51.5416,74.0472 50.7083,73.3805 50,72.5C 43.8309,42.8404 41.9976,43.1737 44.5,73.5C 42.8541,61.5267 41.5208,49.3601 40.5,37C 40.6667,35.8333 40.8333,34.6667 41,33.5C 41.1981,35.3817 41.6981,37.0484 42.5,38.5 Z"/></g>
<g><path style="opacity:1" fill="#aaacc9" d="M 49.5,58.5 C 47.2268,53.4224 45.5602,48.0891 44.5,42.5C 44.2114,39.3508 44.7114,36.3508 46,33.5C 47.2633,31.2031 49.0966,30.3698 51.5,31C 48.2596,41.0669 49.593,50.5669 55.5,59.5C 55.3333,59.8333 55.1667,60.1667 55,60.5C 53.1852,59.7556 51.3519,59.0889 49.5,58.5 Z"/></g>
<g><path style="opacity:1" fill="#611817" d="M 53.5,34.5 C 54.2506,33.4265 55.2506,33.2599 56.5,34C 57.3734,35.045 58.3734,35.8783 59.5,36.5C 58.645,37.5307 57.9783,38.6974 57.5,40C 58.1279,43.1437 59.7945,45.3104 62.5,46.5C 62.5,47.1667 62.5,47.8333 62.5,48.5C 62.9118,50.9726 61.9118,52.3059 59.5,52.5C 59.1583,51.6618 58.4916,51.3284 57.5,51.5C 59.0251,48.5426 58.3584,47.8759 55.5,49.5C 55.3564,45.6255 55.6898,41.7921 56.5,38C 56.7224,35.7253 55.7224,34.5587 53.5,34.5 Z"/></g>
<g><path style="opacity:1" fill="#893f2b" d="M 81.5,37.5 C 80.3391,42.813 79.1724,48.1463 78,53.5C 75.9771,51.2307 75.1437,48.5641 75.5,45.5C 76.2216,45.9175 76.7216,46.5842 77,47.5C 77.9108,43.7701 79.4108,40.4368 81.5,37.5 Z"/></g>
<g><path style="opacity:1" fill="#5d2e2f" d="M 63.5,57.5 C 63.81,54.2869 63.4767,51.2869 62.5,48.5C 62.5,47.8333 62.5,47.1667 62.5,46.5C 63.1515,45.9094 63.8182,45.2427 64.5,44.5C 65.6599,48.4589 65.8265,52.4589 65,56.5C 64.6174,57.056 64.1174,57.3893 63.5,57.5 Z"/></g>
<g><path style="opacity:1" fill="#f5c7cb" d="M 57.5,51.5 C 56.1667,51.8333 54.8333,52.1667 53.5,52.5C 53.5,51.8333 53.5,51.1667 53.5,50.5C 54.1667,50.1667 54.8333,49.8333 55.5,49.5C 58.3584,47.8759 59.0251,48.5426 57.5,51.5 Z"/></g>
<g><path style="opacity:1" fill="#774b44" d="M 127.5,44.5 C 128.41,46.0188 129.243,47.6854 130,49.5C 130.278,48.5842 130.778,47.9175 131.5,47.5C 131.5,48.8333 131.5,50.1667 131.5,51.5C 130.852,53.0858 130.352,54.7525 130,56.5C 129.315,53.4211 128.481,50.4211 127.5,47.5C 127.5,46.5 127.5,45.5 127.5,44.5 Z"/></g>
<g><path style="opacity:1" fill="#ac4630" d="M 204.5,9.5 C 205.403,12.3915 205.736,15.3915 205.5,18.5C 206.5,18.5 207.5,18.5 208.5,18.5C 208.854,29.4627 210.521,40.1294 213.5,50.5C 212.094,54.5963 212.761,58.2629 215.5,61.5C 217.215,77.9883 216.382,94.3216 213,110.5C 211.842,110.002 211.009,109.169 210.5,108C 211.796,101.025 211.796,94.192 210.5,87.5C 210.662,85.4727 210.495,83.4727 210,81.5C 208.838,88.1345 208.005,94.8012 207.5,101.5C 206.655,102.671 205.989,104.005 205.5,105.5C 203.376,109.399 200.543,112.733 197,115.5C 196.902,117.619 196.069,119.286 194.5,120.5C 194.167,120 193.833,119.5 193.5,119C 194.647,115.435 195.981,111.935 197.5,108.5C 195.987,105.197 196.653,102.364 199.5,100C 202.056,94.0182 203.556,87.8516 204,81.5C 203.667,82.1667 203.333,82.8333 203,83.5C 202.5,82 202,80.5 201.5,79C 205.043,63.358 206.543,47.5246 206,31.5C 205.306,42.3663 204.139,53.033 202.5,63.5C 202.358,56.2249 202.358,49.0583 202.5,42C 201.142,39.5015 200.809,37.0015 201.5,34.5C 199.362,33.2557 197.362,31.7557 195.5,30C 196.051,25.7822 198.384,23.1155 202.5,22C 200.943,16.483 199.61,10.8164 198.5,5C 199.448,4.51722 200.448,4.35055 201.5,4.5C 201.687,6.56429 202.187,8.56429 203,10.5C 203.383,9.94404 203.883,9.61071 204.5,9.5 Z"/></g>
<g><path style="opacity:1" fill="#1a1116" d="M 131.5,46.5 C 131.833,46.5 132.167,46.5 132.5,46.5C 133.833,48.5 135.5,50.1667 137.5,51.5C 139.102,54.5342 138.769,57.2009 136.5,59.5C 136.13,56.733 134.796,54.733 132.5,53.5C 132.672,52.5084 132.338,51.8417 131.5,51.5C 131.5,50.1667 131.5,48.8333 131.5,47.5C 131.5,47.1667 131.5,46.8333 131.5,46.5 Z"/></g>
<g><path style="opacity:1" fill="#a1302b" d="M 62.5,48.5 C 63.4767,51.2869 63.81,54.2869 63.5,57.5C 63.1667,57.5 62.8333,57.5 62.5,57.5C 62.5,56.5 62.5,55.5 62.5,54.5C 59.9407,54.1984 57.6074,54.5318 55.5,55.5C 54.5987,54.7095 53.9321,53.7095 53.5,52.5C 54.8333,52.1667 56.1667,51.8333 57.5,51.5C 57.7107,53.4241 58.3774,53.7574 59.5,52.5C 61.9118,52.3059 62.9118,50.9726 62.5,48.5 Z"/></g>
<g><path style="opacity:1" fill="#cf9f9c" d="M 57.5,51.5 C 58.4916,51.3284 59.1583,51.6618 59.5,52.5C 58.3774,53.7574 57.7107,53.4241 57.5,51.5 Z"/></g>
<g><path style="opacity:1" fill="#eee2e6" d="M 127.5,47.5 C 128.481,50.4211 129.315,53.4211 130,56.5C 130.352,54.7525 130.852,53.0858 131.5,51.5C 132.338,51.8417 132.672,52.5084 132.5,53.5C 132.675,55.6208 132.341,57.6208 131.5,59.5C 130.081,60.4511 128.415,60.7845 126.5,60.5C 124.489,57.131 123.489,53.4643 123.5,49.5C 124.605,48.3995 125.938,47.7329 127.5,47.5 Z"/></g>
<g><path style="opacity:1" fill="#c6322a" d="M 119.5,50.5 C 118.586,53.728 118.253,57.0613 118.5,60.5C 117.5,60.5 116.5,60.5 115.5,60.5C 113.598,57.6627 112.931,54.3293 113.5,50.5C 114.584,48.6814 115.918,47.0147 117.5,45.5C 121.468,46.3838 122.135,48.0505 119.5,50.5 Z"/></g>
<g><path style="opacity:1" fill="#c3231e" d="M 62.5,57.5 C 61.8333,57.5 61.5,57.8333 61.5,58.5C 59.3146,58.2964 57.3146,57.6298 55.5,56.5C 55.5,56.1667 55.5,55.8333 55.5,55.5C 57.6074,54.5318 59.9407,54.1984 62.5,54.5C 62.5,55.5 62.5,56.5 62.5,57.5 Z"/></g>
<g><path style="opacity:1" fill="#592013" d="M 39.5,25.5 C 40.4345,26.5676 40.7678,27.901 40.5,29.5C 40.5,30.5 40.5,31.5 40.5,32.5C 41.5,32.5 42.5,32.5 43.5,32.5C 42.6586,34.3792 42.3253,36.3792 42.5,38.5C 41.6981,37.0484 41.1981,35.3817 41,33.5C 40.8333,34.6667 40.6667,35.8333 40.5,37C 41.5208,49.3601 42.8541,61.5267 44.5,73.5C 44.5,74.8333 44.5,76.1667 44.5,77.5C 42.955,76.7703 42.1216,75.437 42,73.5C 41.1691,67.5229 40.6691,61.5229 40.5,55.5C 40.2581,47.111 39.5914,38.7777 38.5,30.5C 39.3094,28.9291 39.6427,27.2624 39.5,25.5 Z"/></g>
<g><path style="opacity:1" fill="#b0b7cc" d="M 132.5,53.5 C 134.796,54.733 136.13,56.733 136.5,59.5C 136.5,60.8333 136.5,62.1667 136.5,63.5C 135.607,61.703 134.274,60.3696 132.5,59.5C 132.167,59.5 131.833,59.5 131.5,59.5C 132.341,57.6208 132.675,55.6208 132.5,53.5 Z"/></g>
<g><path style="opacity:1" fill="#801f1c" d="M 55.5,56.5 C 57.3146,57.6298 59.3146,58.2964 61.5,58.5C 58.9196,60.0156 56.9196,59.3489 55.5,56.5 Z"/></g>
<g><path style="opacity:1" fill="#aa403d" d="M 113.5,50.5 C 112.931,54.3293 113.598,57.6627 115.5,60.5C 115.158,61.3382 114.492,61.6716 113.5,61.5C 112.167,57.8333 112.167,54.1667 113.5,50.5 Z"/></g>
<g><path style="opacity:1" fill="#f4d5b9" d="M 189.5,77.5 C 186.442,81.5246 182.775,84.8579 178.5,87.5C 174.136,89.3437 170.136,91.677 166.5,94.5C 164.167,94.5 161.833,94.5 159.5,94.5C 159.5,93.5 159.5,92.5 159.5,91.5C 159.366,89.7085 159.699,88.0418 160.5,86.5C 163.82,85.6068 166.82,84.2735 169.5,82.5C 170.833,81.8333 171.833,80.8333 172.5,79.5C 178.733,76.899 179.733,73.0657 175.5,68C 177.84,67.2516 179.84,67.7516 181.5,69.5C 181.628,71.0898 182.295,72.4231 183.5,73.5C 184.48,72.0186 185.647,70.6853 187,69.5C 187.941,67.0106 187.441,65.0106 185.5,63.5C 185.262,61.5956 184.262,60.2623 182.5,59.5C 180.059,58.2437 177.726,58.2437 175.5,59.5C 165.777,62.2837 163.11,68.2837 167.5,77.5C 167.5,77.8333 167.5,78.1667 167.5,78.5C 165.754,80.2516 163.754,81.5849 161.5,82.5C 163.251,72.8147 164.917,63.148 166.5,53.5C 168.517,52.4706 170.517,51.4706 172.5,50.5C 175.113,49.5651 177.779,49.3985 180.5,50C 191.169,56.5077 194.169,65.6744 189.5,77.5 Z"/></g>
<g><path style="opacity:1" fill="#330e05" d="M 175.5,59.5 C 177.726,58.2437 180.059,58.2437 182.5,59.5C 180.412,59.8652 178.079,59.8652 175.5,59.5 Z"/></g>
<g><path style="opacity:1" fill="#985240" d="M 138.5,44.5 C 139.167,46.1667 139.833,47.8333 140.5,49.5C 140.953,56.859 139.286,63.5256 135.5,69.5C 135.5,69.1667 135.5,68.8333 135.5,68.5C 135.629,66.7839 135.962,65.1172 136.5,63.5C 136.5,62.1667 136.5,60.8333 136.5,59.5C 138.769,57.2009 139.102,54.5342 137.5,51.5C 138.338,51.1583 138.672,50.4916 138.5,49.5C 138.5,47.8333 138.5,46.1667 138.5,44.5 Z"/></g>
<g><path style="opacity:1" fill="#b7714b" d="M 175.5,59.5 C 178.079,59.8652 180.412,59.8652 182.5,59.5C 184.262,60.2623 185.262,61.5956 185.5,63.5C 181.125,60.8417 176.792,60.8417 172.5,63.5C 171.711,63.7828 171.044,64.2828 170.5,65C 171.672,65.4186 172.672,66.0853 173.5,67C 171.744,67.1405 170.078,66.6405 168.5,65.5C 167.207,67.6365 167.207,69.6365 168.5,71.5C 168.795,73.7354 168.461,75.7354 167.5,77.5C 163.11,68.2837 165.777,62.2837 175.5,59.5 Z"/></g>
<g><path style="opacity:1" fill="#6b1b1b" d="M 123.5,49.5 C 123.489,53.4643 124.489,57.131 126.5,60.5C 126.5,60.8333 126.5,61.1667 126.5,61.5C 126.167,62.1667 125.833,62.8333 125.5,63.5C 124.292,64.2341 122.959,64.5674 121.5,64.5C 121.158,63.6618 120.492,63.3284 119.5,63.5C 119.5,63.1667 119.5,62.8333 119.5,62.5C 121.031,61.0755 120.698,60.4088 118.5,60.5C 118.253,57.0613 118.586,53.728 119.5,50.5C 120.959,50.5674 122.292,50.2341 123.5,49.5 Z"/></g>
<g><path style="opacity:1" fill="#f1edef" d="M 111.5,45.5 C 109.8,53.7051 110.467,61.7051 113.5,69.5C 112.311,70.4287 110.978,70.762 109.5,70.5C 107.782,69.776 105.948,69.1094 104,68.5C 100.242,62.0625 98.7419,55.0625 99.5,47.5C 100.5,47.1667 101.167,46.5 101.5,45.5C 103.734,44.5531 106.068,43.8864 108.5,43.5C 110.03,43.6399 111.03,44.3065 111.5,45.5 Z"/></g>
<g><path style="opacity:1" fill="#fad0cd" d="M 115.5,60.5 C 116.5,60.5 117.5,60.5 118.5,60.5C 120.698,60.4088 121.031,61.0755 119.5,62.5C 117.5,63.1667 115.5,63.8333 113.5,64.5C 112.375,63.6522 112.375,62.6522 113.5,61.5C 114.492,61.6716 115.158,61.3382 115.5,60.5 Z"/></g>
<g><path style="opacity:1" fill="#3c1c1e" d="M 40.5,55.5 C 40.6691,61.5229 41.1691,67.5229 42,73.5C 42.1216,75.437 42.955,76.7703 44.5,77.5C 44.6741,79.861 45.0074,82.1944 45.5,84.5C 45.3739,86.1998 44.7073,87.6998 43.5,89C 44.0104,90.8261 44.8438,90.9928 46,89.5C 46.7805,90.9437 46.6139,92.277 45.5,93.5C 43.9411,94.0736 42.4411,94.7402 41,95.5C 40.2515,93.6675 39.2515,92.0009 38,90.5C 36.8869,91.7111 35.7202,91.7111 34.5,90.5C 33.3279,90.9186 32.3279,91.5853 31.5,92.5C 33.4612,97.3075 32.4612,101.474 28.5,105C 29.7155,107.096 30.5488,106.929 31,104.5C 31.5,105.5 32,106.5 32.5,107.5C 31.2889,108.72 31.2889,109.887 32.5,111C 30.1088,111.691 30.1088,112.691 32.5,114C 30.1088,115.309 30.1088,116.309 32.5,117C 30.0712,117.451 29.9045,118.285 32,119.5C 34.3333,117.833 36.6667,116.167 39,114.5C 39.4561,115.744 38.9561,116.577 37.5,117C 38.1667,117.667 38.8333,118.333 39.5,119C 37.9452,120.646 36.2785,120.979 34.5,120C 33.7402,121.441 33.0736,122.941 32.5,124.5C 34.6827,126.707 36.0161,129.374 36.5,132.5C 39.4114,133.584 41.7447,132.751 43.5,130C 39.1617,128.907 38.6617,127.074 42,124.5C 43.3204,124.799 44.8204,124.966 46.5,125C 45.8333,126.333 45.1667,127.667 44.5,129C 47.5787,129.973 50.5787,130.806 53.5,131.5C 44.1394,132.004 36.3061,135.671 30,142.5C 29.6799,139.46 29.6799,136.46 30,133.5C 28.4205,136.994 26.5872,140.327 24.5,143.5C 23.5024,135.156 23.3357,126.823 24,118.5C 23.3208,122.039 22.1542,125.372 20.5,128.5C 18.1652,127.587 15.9985,126.253 14,124.5C 13.279,113.137 13.6123,101.804 15,90.5C 15.8808,88.7265 17.0475,88.0598 18.5,88.5C 15.9199,86.287 15.9199,84.1203 18.5,82C 17.6198,80.6439 17.2865,79.1439 17.5,77.5C 19.1992,77.6602 20.8659,77.4935 22.5,77C 21.0625,75.7592 19.5625,75.2592 18,75.5C 16.3308,76.8463 15.1642,78.513 14.5,80.5C 14.5,81.1667 14.5,81.8333 14.5,82.5C 7.24028,97.6078 3.07361,113.608 2,130.5C 1.06564,129.142 0.232305,127.808 -0.5,126.5C -0.5,117.5 -0.5,108.5 -0.5,99.5C 3.56603,82.9706 9.2327,66.9706 16.5,51.5C 16.369,52.2389 16.5357,52.9056 17,53.5C 17.7412,52.3595 18.5745,52.3595 19.5,53.5C 23.0059,49.4728 25.0059,44.8062 25.5,39.5C 28.0895,39.6038 30.4229,38.9371 32.5,37.5C 35.6354,38.4583 37.302,40.625 37.5,44C 35.7795,44.7393 34.1128,45.5726 32.5,46.5C 30.7589,50.6577 31.4256,54.3243 34.5,57.5C 33.6167,59.4798 33.7834,61.4798 35,63.5C 35.7065,61.9194 36.5399,60.4194 37.5,59C 35.9339,55.4034 36.9339,54.2368 40.5,55.5 Z"/></g>
<g><path style="opacity:1" fill="#ee8b57" d="M 185.5,63.5 C 187.441,65.0106 187.941,67.0106 187,69.5C 185.647,70.6853 184.48,72.0186 183.5,73.5C 182.295,72.4231 181.628,71.0898 181.5,69.5C 181.586,68.5041 181.252,67.6708 180.5,67C 177.69,65.9884 175.024,64.8217 172.5,63.5C 176.792,60.8417 181.125,60.8417 185.5,63.5 Z"/></g>
<g><path style="opacity:1" fill="#d9855a" d="M 172.5,63.5 C 175.024,64.8217 177.69,65.9884 180.5,67C 181.252,67.6708 181.586,68.5041 181.5,69.5C 179.84,67.7516 177.84,67.2516 175.5,68C 179.733,73.0657 178.733,76.899 172.5,79.5C 172.892,77.8211 173.392,76.1545 174,74.5C 174.92,74.0698 175.753,73.7365 176.5,73.5C 175.454,70.9537 173.621,69.2871 171,68.5C 169.251,68.7483 168.418,69.7483 168.5,71.5C 167.207,69.6365 167.207,67.6365 168.5,65.5C 170.078,66.6405 171.744,67.1405 173.5,67C 172.672,66.0853 171.672,65.4186 170.5,65C 171.044,64.2828 171.711,63.7828 172.5,63.5 Z"/></g>
<g><path style="opacity:1" fill="#4e2020" d="M 131.5,59.5 C 131.833,59.5 132.167,59.5 132.5,59.5C 132.263,62.6473 131.43,65.6473 130,68.5C 129.34,70.3237 128.173,71.657 126.5,72.5C 126.167,72.5 125.833,72.5 125.5,72.5C 122.615,72.8064 119.948,72.4731 117.5,71.5C 125.068,72.2289 129.402,68.8955 130.5,61.5C 129.167,61.5 127.833,61.5 126.5,61.5C 126.5,61.1667 126.5,60.8333 126.5,60.5C 128.415,60.7845 130.081,60.4511 131.5,59.5 Z"/></g>
<g><path style="opacity:1" fill="#f2e1e1" d="M 132.5,59.5 C 134.274,60.3696 135.607,61.703 136.5,63.5C 135.962,65.1172 135.629,66.7839 135.5,68.5C 133.807,71.1897 131.473,73.1897 128.5,74.5C 127.833,73.8333 127.167,73.1667 126.5,72.5C 128.173,71.657 129.34,70.3237 130,68.5C 131.43,65.6473 132.263,62.6473 132.5,59.5 Z"/></g>
<g><path style="opacity:1" fill="#b93c37" d="M 126.5,61.5 C 127.833,61.5 129.167,61.5 130.5,61.5C 129.402,68.8955 125.068,72.2289 117.5,71.5C 114.932,69.919 113.599,67.5857 113.5,64.5C 115.5,63.8333 117.5,63.1667 119.5,62.5C 119.5,62.8333 119.5,63.1667 119.5,63.5C 119.5,63.8333 119.5,64.1667 119.5,64.5C 115.971,65.6092 115.638,67.4425 118.5,70C 122.086,70.5332 125.086,69.3665 127.5,66.5C 129.151,63.2218 128.485,62.2218 125.5,63.5C 125.833,62.8333 126.167,62.1667 126.5,61.5 Z"/></g>
<g><path style="opacity:1" fill="#da3229" d="M 119.5,64.5 C 120.167,65.8333 120.833,65.8333 121.5,64.5C 122.959,64.5674 124.292,64.2341 125.5,63.5C 128.485,62.2218 129.151,63.2218 127.5,66.5C 125.086,69.3665 122.086,70.5332 118.5,70C 115.638,67.4425 115.971,65.6092 119.5,64.5 Z"/></g>
<g><path style="opacity:1" fill="#f3b5a7" d="M 119.5,63.5 C 120.492,63.3284 121.158,63.6618 121.5,64.5C 120.833,65.8333 120.167,65.8333 119.5,64.5C 119.5,64.1667 119.5,63.8333 119.5,63.5 Z"/></g>
<g><path style="opacity:1" fill="#f08c59" d="M 172.5,79.5 C 171.833,80.8333 170.833,81.8333 169.5,82.5C 168.127,82.6567 166.793,82.49 165.5,82C 166.823,81.1841 167.489,80.0174 167.5,78.5C 167.5,78.1667 167.5,77.8333 167.5,77.5C 168.461,75.7354 168.795,73.7354 168.5,71.5C 168.418,69.7483 169.251,68.7483 171,68.5C 173.621,69.2871 175.454,70.9537 176.5,73.5C 175.753,73.7365 174.92,74.0698 174,74.5C 173.392,76.1545 172.892,77.8211 172.5,79.5 Z"/></g>
<g><path style="opacity:1" fill="#736b6c" d="M 125.5,72.5 C 125.833,72.5 126.167,72.5 126.5,72.5C 127.167,73.1667 127.833,73.8333 128.5,74.5C 126.821,74.7148 125.821,74.0481 125.5,72.5 Z"/></g>
<g><path style="opacity:1" fill="#a54434" d="M 204.5,8.5 C 205.5,9.16667 206.5,9.83333 207.5,10.5C 208.774,12.9925 209.44,15.6592 209.5,18.5C 209.745,25.5621 210.578,32.5621 212,39.5C 213.352,43.538 215.186,47.2046 217.5,50.5C 217.5,51.1667 217.5,51.8333 217.5,52.5C 220.119,68.0348 221.119,83.7015 220.5,99.5C 219.778,99.0825 219.278,98.4158 219,97.5C 218.667,100.833 218.333,104.167 218,107.5C 217.667,107.833 217.333,108.167 217,108.5C 215.276,106.103 215.276,103.769 217,101.5C 217.851,86.8001 217.518,72.1335 216,57.5C 215.51,58.7932 215.343,60.1266 215.5,61.5C 212.761,58.2629 212.094,54.5963 213.5,50.5C 210.521,40.1294 208.854,29.4627 208.5,18.5C 207.5,18.5 206.5,18.5 205.5,18.5C 205.736,15.3915 205.403,12.3915 204.5,9.5C 204.5,9.16667 204.5,8.83333 204.5,8.5 Z"/></g>
<g><path style="opacity:1" fill="#7e321e" d="M 155.5,61.5 C 156.139,62.0968 156.472,62.9302 156.5,64C 154.969,70.8862 153.302,77.7195 151.5,84.5C 150.431,89.4793 148.765,94.146 146.5,98.5C 149.097,85.9419 152.097,73.6085 155.5,61.5 Z"/></g>
<g><path style="opacity:1" fill="#dd8c5e" d="M 135.5,68.5 C 135.5,68.8333 135.5,69.1667 135.5,69.5C 134.144,74.2707 132.811,78.9374 131.5,83.5C 131.88,78.2223 129.546,75.5557 124.5,75.5C 126.099,75.7678 127.432,75.4345 128.5,74.5C 131.473,73.1897 133.807,71.1897 135.5,68.5 Z"/></g>
<g><path style="opacity:1" fill="#623520" d="M 65.5,81.5 C 65.1034,82.525 64.4368,82.6917 63.5,82C 61.5359,80.549 60.2026,78.7157 59.5,76.5C 61.4628,75.0401 63.2962,73.3734 65,71.5C 65.6667,72.1667 65.6667,72.8333 65,73.5C 60.3158,76.4662 60.4825,79.1328 65.5,81.5 Z"/></g>
<g><path style="opacity:0.804" fill="#8c2c2b" d="M 217.5,52.5 C 220.065,59.9925 221.731,67.6591 222.5,75.5C 222.5,82.5 222.5,89.5 222.5,96.5C 221.677,99.977 221.177,103.644 221,107.5C 220.764,109.119 219.931,110.119 218.5,110.5C 219.485,106.924 220.152,103.258 220.5,99.5C 221.119,83.7015 220.119,68.0348 217.5,52.5 Z"/></g>
<g><path style="opacity:1" fill="#c78161" d="M 167.5,78.5 C 167.489,80.0174 166.823,81.1841 165.5,82C 166.793,82.49 168.127,82.6567 169.5,82.5C 166.82,84.2735 163.82,85.6068 160.5,86.5C 160.833,85.1667 161.167,83.8333 161.5,82.5C 163.754,81.5849 165.754,80.2516 167.5,78.5 Z"/></g>
<g><path style="opacity:1" fill="#9b402d" d="M 205.5,105.5 C 206.167,105.5 206.5,105.833 206.5,106.5C 205.662,106.842 205.328,107.508 205.5,108.5C 202.665,112.164 200.332,116.164 198.5,120.5C 196.376,121.031 194.876,122.365 194,124.5C 193.667,123.833 193.333,123.167 193,122.5C 190.901,123.131 189.068,124.131 187.5,125.5C 187.077,124.735 186.743,123.902 186.5,123C 187.609,120.953 188.276,118.787 188.5,116.5C 192.515,106.287 196.015,95.9535 199,85.5C 199.071,77.9189 200.237,70.5855 202.5,63.5C 204.139,53.033 205.306,42.3663 206,31.5C 206.543,47.5246 205.043,63.358 201.5,79C 202,80.5 202.5,82 203,83.5C 203.333,82.8333 203.667,82.1667 204,81.5C 203.556,87.8516 202.056,94.0182 199.5,100C 196.653,102.364 195.987,105.197 197.5,108.5C 195.981,111.935 194.647,115.435 193.5,119C 193.833,119.5 194.167,120 194.5,120.5C 196.069,119.286 196.902,117.619 197,115.5C 200.543,112.733 203.376,109.399 205.5,105.5 Z"/></g>
<g><path style="opacity:1" fill="#ea7d47" d="M 52.5,74.5 C 52.2865,76.1439 52.6198,77.6439 53.5,79C 58.4878,80.5142 62.8212,83.0142 66.5,86.5C 68.1667,84.8333 69.1667,85.1667 69.5,87.5C 68.8607,90.4748 68.3607,93.4748 68,96.5C 67,95.1667 66,95.1667 65,96.5C 63.321,93.3008 61.321,92.9675 59,95.5C 57.9132,92.2719 55.7465,90.2719 52.5,89.5C 48.8289,86.1544 46.1622,82.1544 44.5,77.5C 44.5,76.1667 44.5,74.8333 44.5,73.5C 41.9976,43.1737 43.8309,42.8404 50,72.5C 50.7083,73.3805 51.5416,74.0472 52.5,74.5 Z"/></g>
<g><path style="opacity:0.97" fill="#411f2d" d="M 20.5,128.5 C 19.4988,133.501 17.6655,138.168 15,142.5C 10.5639,122.545 10.3972,102.545 14.5,82.5C 15.8333,81.8333 15.8333,81.1667 14.5,80.5C 15.1642,78.513 16.3308,76.8463 18,75.5C 19.5625,75.2592 21.0625,75.7592 22.5,77C 20.8659,77.4935 19.1992,77.6602 17.5,77.5C 17.2865,79.1439 17.6198,80.6439 18.5,82C 15.9199,84.1203 15.9199,86.287 18.5,88.5C 17.0475,88.0598 15.8808,88.7265 15,90.5C 13.6123,101.804 13.279,113.137 14,124.5C 15.9985,126.253 18.1652,127.587 20.5,128.5 Z"/></g>
<g><path style="opacity:1" fill="#592011" d="M 44.5,77.5 C 46.1622,82.1544 48.8289,86.1544 52.5,89.5C 53.1667,90.5 53.8333,91.5 54.5,92.5C 50.8739,90.5407 47.8739,87.874 45.5,84.5C 45.0074,82.1944 44.6741,79.861 44.5,77.5 Z"/></g>
<g><path style="opacity:1" fill="#b44d34" d="M 184.5,-0.5 C 190.167,-0.5 195.833,-0.5 201.5,-0.5C 202.787,2.40612 203.787,5.40612 204.5,8.5C 204.5,8.83333 204.5,9.16667 204.5,9.5C 203.883,9.61071 203.383,9.94404 203,10.5C 202.187,8.56429 201.687,6.56429 201.5,4.5C 200.448,4.35055 199.448,4.51722 198.5,5C 199.61,10.8164 200.943,16.483 202.5,22C 198.384,23.1155 196.051,25.7822 195.5,30C 197.362,31.7557 199.362,33.2557 201.5,34.5C 200.809,37.0015 201.142,39.5015 202.5,42C 202.358,49.0583 202.358,56.2249 202.5,63.5C 200.237,70.5855 199.071,77.9189 199,85.5C 196.015,95.9535 192.515,106.287 188.5,116.5C 187.25,116.423 186.417,115.756 186,114.5C 183.826,116.174 181.993,118.174 180.5,120.5C 175.142,122.509 173.142,120.843 174.5,115.5C 176.009,117.915 177.676,118.081 179.5,116C 176.439,112.738 172.772,110.404 168.5,109C 170.071,106.567 170.905,104.067 171,101.5C 172.389,99.7727 174.056,98.4394 176,97.5C 176.945,97.9054 177.612,98.572 178,99.5C 178.684,98.2161 178.517,97.0495 177.5,96C 178.584,93.1751 179.751,93.0085 181,95.5C 181.903,94.2986 183.069,93.4652 184.5,93C 183.495,91.4933 182.162,90.3267 180.5,89.5C 181.668,87.7826 183.335,87.1159 185.5,87.5C 186.292,83.9217 187.625,80.5884 189.5,77.5C 190.833,77.5 192.167,77.5 193.5,77.5C 193.192,71.5746 193.525,65.7412 194.5,60C 193.405,56.3535 191.405,53.3535 188.5,51C 189.337,49.9887 189.67,48.8221 189.5,47.5C 187.512,47.8271 185.512,48.1604 183.5,48.5C 180.581,47.36 177.581,46.5267 174.5,46C 175.022,45.4387 175.355,44.772 175.5,44C 174.349,41.5351 173.349,39.0351 172.5,36.5C 173.665,35.5039 174.332,34.1705 174.5,32.5C 173.022,29.3965 173.189,26.3965 175,23.5C 175.333,26.8333 175.667,30.1667 176,33.5C 177.425,32.7877 178.925,32.621 180.5,33C 177.628,30.4784 177.962,28.6451 181.5,27.5C 179.833,26.5 178.5,25.1667 177.5,23.5C 177.712,20.348 177.712,17.0147 177.5,13.5C 181.479,14.2647 185.479,13.7647 189.5,12C 189.167,11.6667 188.833,11.3333 188.5,11C 191.276,9.22131 190.943,8.22131 187.5,8C 190.003,7.87064 192.003,6.87064 193.5,5C 190.836,3.296 187.836,1.46267 184.5,-0.5 Z"/></g>
<g><path style="opacity:1" fill="#e27d4d" d="M 52.5,74.5 C 53.8566,75.6854 55.3566,76.6854 57,77.5C 57.9021,77.2568 58.7354,76.9234 59.5,76.5C 60.2026,78.7157 61.5359,80.549 63.5,82C 64.4368,82.6917 65.1034,82.525 65.5,81.5C 67.9801,82.9117 70.3134,84.5784 72.5,86.5C 71.3887,87.6113 70.722,88.9446 70.5,90.5C 71.5642,92.9587 72.8975,95.292 74.5,97.5C 72.5764,98.9653 72.2431,100.632 73.5,102.5C 72.6236,102.369 71.9569,102.702 71.5,103.5C 70.6701,106.016 69.6701,108.35 68.5,110.5C 68.6495,109.448 68.4828,108.448 68,107.5C 63.6629,102.331 59.1629,97.3308 54.5,92.5C 53.8333,91.5 53.1667,90.5 52.5,89.5C 55.7465,90.2719 57.9132,92.2719 59,95.5C 61.321,92.9675 63.321,93.3008 65,96.5C 66,95.1667 67,95.1667 68,96.5C 68.3607,93.4748 68.8607,90.4748 69.5,87.5C 69.1667,85.1667 68.1667,84.8333 66.5,86.5C 62.8212,83.0142 58.4878,80.5142 53.5,79C 52.6198,77.6439 52.2865,76.1439 52.5,74.5 Z"/></g>
<g><path style="opacity:1" fill="#65211a" d="M 210.5,87.5 C 210.462,96.8464 210.129,106.18 209.5,115.5C 209.672,116.492 209.338,117.158 208.5,117.5C 208.821,111.974 208.488,106.64 207.5,101.5C 208.005,94.8012 208.838,88.1345 210,81.5C 210.495,83.4727 210.662,85.4727 210.5,87.5 Z"/></g>
<g><path style="opacity:1" fill="#866d5b" d="M 82.5,97.5 C 83.675,97.281 84.675,97.6143 85.5,98.5C 83.9255,99.6309 82.2588,99.7975 80.5,99C 81.4158,98.7216 82.0825,98.2216 82.5,97.5 Z"/></g>
<g><path style="opacity:1" fill="#5a2f28" d="M 178.5,87.5 C 177.928,89.2554 177.094,90.9221 176,92.5C 172.583,96.7383 169.083,100.738 165.5,104.5C 166.051,101.193 166.384,97.8599 166.5,94.5C 170.136,91.677 174.136,89.3437 178.5,87.5 Z"/></g>
<g><path style="opacity:1" fill="#b34e34" d="M 155.5,61.5 C 152.097,73.6085 149.097,85.9419 146.5,98.5C 144.998,106.015 142.331,113.015 138.5,119.5C 133.506,118.813 130.506,120.813 129.5,125.5C 127.856,125.714 126.356,125.38 125,124.5C 124.398,121.338 124.898,118.338 126.5,115.5C 126.154,114.151 125.821,112.817 125.5,111.5C 126.341,106.468 127.341,101.468 128.5,96.5C 129.707,92.2131 130.707,87.8797 131.5,83.5C 132.811,78.9374 134.144,74.2707 135.5,69.5C 139.286,63.5256 140.953,56.859 140.5,49.5C 141.117,49.3893 141.617,49.056 142,48.5C 142.288,43.3992 143.122,38.3992 144.5,33.5C 145.833,32.1667 147.167,30.8333 148.5,29.5C 152.607,30.3754 153.273,32.2087 150.5,35C 152.572,38.2023 154.072,41.7023 155,45.5C 154.811,50.9102 154.978,56.2436 155.5,61.5 Z"/></g>
<g><path style="opacity:1" fill="#e58656" d="M 159.5,91.5 C 159.5,92.5 159.5,93.5 159.5,94.5C 161.833,94.5 164.167,94.5 166.5,94.5C 166.384,97.8599 166.051,101.193 165.5,104.5C 164.448,104.351 163.448,104.517 162.5,105C 159.669,107.001 157.003,109.167 154.5,111.5C 155.192,107.4 156.192,103.4 157.5,99.5C 157.802,96.6275 158.469,93.9608 159.5,91.5 Z"/></g>
<g><path style="opacity:0.98" fill="#a8a5be" d="M 165.5,104.5 C 165.606,107.079 164.939,109.412 163.5,111.5C 159.702,114.796 156.036,118.296 152.5,122C 151.552,122.483 150.552,122.649 149.5,122.5C 149.837,118.164 151.504,114.497 154.5,111.5C 157.003,109.167 159.669,107.001 162.5,105C 163.448,104.517 164.448,104.351 165.5,104.5 Z"/></g>
<g><path style="opacity:1" fill="#983e30" d="M 220.5,99.5 C 220.152,103.258 219.485,106.924 218.5,110.5C 217.607,114.852 215.94,118.852 213.5,122.5C 212.669,118.987 212.503,115.321 213,111.5C 212.34,113.324 211.173,114.657 209.5,115.5C 210.129,106.18 210.462,96.8464 210.5,87.5C 211.796,94.192 211.796,101.025 210.5,108C 211.009,109.169 211.842,110.002 213,110.5C 216.382,94.3216 217.215,77.9883 215.5,61.5C 215.343,60.1266 215.51,58.7932 216,57.5C 217.518,72.1335 217.851,86.8001 217,101.5C 215.276,103.769 215.276,106.103 217,108.5C 217.333,108.167 217.667,107.833 218,107.5C 218.333,104.167 218.667,100.833 219,97.5C 219.278,98.4158 219.778,99.0825 220.5,99.5 Z"/></g>
<g><path style="opacity:1" fill="#f5cfb0" d="M 73.5,102.5 C 72.0862,114.154 69.4195,125.487 65.5,136.5C 61.9198,139.406 59.5865,143.072 58.5,147.5C 58.5,144.833 58.5,142.167 58.5,139.5C 59.5758,136.352 60.9091,133.352 62.5,130.5C 64.499,123.838 66.499,117.172 68.5,110.5C 69.6701,108.35 70.6701,106.016 71.5,103.5C 71.9569,102.702 72.6236,102.369 73.5,102.5 Z"/></g>
<g><path style="opacity:1" fill="#e38a58" d="M 128.5,96.5 C 127.341,101.468 126.341,106.468 125.5,111.5C 122.736,116.394 121.069,121.727 120.5,127.5C 120.167,127.5 119.833,127.5 119.5,127.5C 118.525,125.205 117.192,123.205 115.5,121.5C 114.167,120.167 114.167,118.833 115.5,117.5C 120.734,113.212 120.067,112.545 113.5,115.5C 112.167,115.833 110.833,116.167 109.5,116.5C 109.5,116.167 109.5,115.833 109.5,115.5C 112.765,113.416 115.932,111.083 119,108.5C 121.65,104.025 124.817,100.025 128.5,96.5 Z"/></g>
<g><path style="opacity:1" fill="#42201e" d="M 45.5,84.5 C 47.8739,87.874 50.8739,90.5407 54.5,92.5C 59.1629,97.3308 63.6629,102.331 68,107.5C 68.4828,108.448 68.6495,109.448 68.5,110.5C 66.499,117.172 64.499,123.838 62.5,130.5C 60.2646,130.205 58.2646,130.539 56.5,131.5C 55.5,131.5 54.5,131.5 53.5,131.5C 50.5787,130.806 47.5787,129.973 44.5,129C 45.1667,127.667 45.8333,126.333 46.5,125C 44.8204,124.966 43.3204,124.799 42,124.5C 38.6617,127.074 39.1617,128.907 43.5,130C 41.7447,132.751 39.4114,133.584 36.5,132.5C 36.0161,129.374 34.6827,126.707 32.5,124.5C 33.0736,122.941 33.7402,121.441 34.5,120C 36.2785,120.979 37.9452,120.646 39.5,119C 38.8333,118.333 38.1667,117.667 37.5,117C 38.9561,116.577 39.4561,115.744 39,114.5C 36.6667,116.167 34.3333,117.833 32,119.5C 29.9045,118.285 30.0712,117.451 32.5,117C 30.1088,116.309 30.1088,115.309 32.5,114C 30.1088,112.691 30.1088,111.691 32.5,111C 31.2889,109.887 31.2889,108.72 32.5,107.5C 32,106.5 31.5,105.5 31,104.5C 30.5488,106.929 29.7155,107.096 28.5,105C 32.4612,101.474 33.4612,97.3075 31.5,92.5C 32.3279,91.5853 33.3279,90.9186 34.5,90.5C 35.7202,91.7111 36.8869,91.7111 38,90.5C 39.2515,92.0009 40.2515,93.6675 41,95.5C 42.4411,94.7402 43.9411,94.0736 45.5,93.5C 46.6139,92.277 46.7805,90.9437 46,89.5C 44.8438,90.9928 44.0104,90.8261 43.5,89C 44.7073,87.6998 45.3739,86.1998 45.5,84.5 Z"/></g>
<g><path style="opacity:1" fill="#4d1710" d="M 115.5,117.5 C 114.833,117.167 114.167,116.833 113.5,116.5C 113.5,116.167 113.5,115.833 113.5,115.5C 120.067,112.545 120.734,113.212 115.5,117.5 Z"/></g>
<g><path style="opacity:1" fill="#a7724f" d="M 73.5,102.5 C 76.0098,102.927 78.3432,103.593 80.5,104.5C 79.1779,104.33 78.0113,104.663 77,105.5C 75.525,108.76 74.3584,112.093 73.5,115.5C 71.8519,120.419 70.3519,125.419 69,130.5C 68.059,132.727 66.8923,134.727 65.5,136.5C 69.4195,125.487 72.0862,114.154 73.5,102.5 Z"/></g>
<g><path style="opacity:1" fill="#91441c" d="M 113.5,115.5 C 113.5,115.833 113.5,116.167 113.5,116.5C 111.085,117.305 108.751,118.305 106.5,119.5C 105.833,119.5 105.167,119.5 104.5,119.5C 105.965,118.263 107.632,117.263 109.5,116.5C 110.833,116.167 112.167,115.833 113.5,115.5 Z"/></g>
<g><path style="opacity:1" fill="#a25737" d="M 113.5,116.5 C 114.167,116.833 114.833,117.167 115.5,117.5C 114.167,118.833 114.167,120.167 115.5,121.5C 114.167,121.5 113.5,122.167 113.5,123.5C 112.508,123.328 111.842,123.662 111.5,124.5C 110.441,122.93 110.941,121.597 113,120.5C 113.49,119.207 113.657,117.873 113.5,116.5 Z"/></g>
<g><path style="opacity:0.584" fill="#431020" d="M 207.5,101.5 C 208.488,106.64 208.821,111.974 208.5,117.5C 208.702,119.95 208.369,122.283 207.5,124.5C 206.664,123.411 205.997,121.578 205.5,119C 205.979,115.521 205.979,112.021 205.5,108.5C 206.338,108.158 206.672,107.492 206.5,106.5C 206.5,105.833 206.167,105.5 205.5,105.5C 205.989,104.005 206.655,102.671 207.5,101.5 Z"/></g>
<g><path style="opacity:1" fill="#eb8b57" d="M 113.5,116.5 C 113.657,117.873 113.49,119.207 113,120.5C 110.941,121.597 110.441,122.93 111.5,124.5C 111.167,125.5 110.5,126.167 109.5,126.5C 108.167,126.5 106.833,126.5 105.5,126.5C 104.127,126.657 102.793,126.49 101.5,126C 103.686,124.588 105.352,122.755 106.5,120.5C 106.5,120.167 106.5,119.833 106.5,119.5C 108.751,118.305 111.085,117.305 113.5,116.5 Z"/></g>
<g><path style="opacity:1" fill="#da9165" d="M 83.5,111.5 C 84.5767,114.307 85.5767,117.14 86.5,120C 89.1667,120.667 91.8333,120.667 94.5,120C 99.4507,118.44 104.451,116.94 109.5,115.5C 109.5,115.833 109.5,116.167 109.5,116.5C 107.632,117.263 105.965,118.263 104.5,119.5C 100.699,120.201 97.0325,121.368 93.5,123C 89.577,123.793 85.7436,123.626 82,122.5C 80.9614,123.244 80.4614,124.244 80.5,125.5C 80.1667,125.5 79.8333,125.5 79.5,125.5C 79.3379,123.473 79.5045,121.473 80,119.5C 81.1723,116.769 82.3389,114.102 83.5,111.5 Z"/></g>
<g><path style="opacity:1" fill="#e18458" d="M 151.5,84.5 C 152.124,84.9169 152.457,85.5836 152.5,86.5C 150.731,98.9089 147.731,110.909 143.5,122.5C 142.094,122.973 141.427,123.973 141.5,125.5C 139.413,126.585 138.08,128.251 137.5,130.5C 136.272,131.306 135.272,132.306 134.5,133.5C 134.167,133.5 133.833,133.5 133.5,133.5C 135.16,128.844 136.826,124.177 138.5,119.5C 142.331,113.015 144.998,106.015 146.5,98.5C 148.765,94.146 150.431,89.4793 151.5,84.5 Z"/></g>
<g><path style="opacity:0.008" fill="#904b56" d="M 213.5,122.5 C 212.306,125.018 211.14,125.018 210,122.5C 209.583,123.756 208.75,124.423 207.5,124.5C 208.369,122.283 208.702,119.95 208.5,117.5C 209.338,117.158 209.672,116.492 209.5,115.5C 211.173,114.657 212.34,113.324 213,111.5C 212.503,115.321 212.669,118.987 213.5,122.5 Z"/></g>
<g><path style="opacity:0.847" fill="#c49886" d="M 115.5,121.5 C 117.192,123.205 118.525,125.205 119.5,127.5C 119.768,129.099 119.434,130.432 118.5,131.5C 118.12,128.255 116.953,125.255 115,122.5C 114.617,123.056 114.117,123.389 113.5,123.5C 113.5,122.167 114.167,121.5 115.5,121.5 Z"/></g>
<g><path style="opacity:1" fill="#b1523b" d="M 189.5,77.5 C 187.625,80.5884 186.292,83.9217 185.5,87.5C 183.335,87.1159 181.668,87.7826 180.5,89.5C 182.162,90.3267 183.495,91.4933 184.5,93C 183.069,93.4652 181.903,94.2986 181,95.5C 179.751,93.0085 178.584,93.1751 177.5,96C 178.517,97.0495 178.684,98.2161 178,99.5C 177.612,98.572 176.945,97.9054 176,97.5C 174.056,98.4394 172.389,99.7727 171,101.5C 170.905,104.067 170.071,106.567 168.5,109C 172.772,110.404 176.439,112.738 179.5,116C 177.676,118.081 176.009,117.915 174.5,115.5C 173.142,120.843 175.142,122.509 180.5,120.5C 181.993,118.174 183.826,116.174 186,114.5C 186.417,115.756 187.25,116.423 188.5,116.5C 188.276,118.787 187.609,120.953 186.5,123C 186.743,123.902 187.077,124.735 187.5,125.5C 182.074,127.57 176.574,129.57 171,131.5C 172,127.659 172.5,123.659 172.5,119.5C 169.715,119.933 167.381,121.266 165.5,123.5C 163.423,124.988 162.423,126.988 162.5,129.5C 161.488,130.872 160.488,132.205 159.5,133.5C 158.5,133.5 157.5,133.5 156.5,133.5C 158.038,129.969 159.038,126.303 159.5,122.5C 160.832,118.838 162.165,115.172 163.5,111.5C 164.939,109.412 165.606,107.079 165.5,104.5C 169.083,100.738 172.583,96.7383 176,92.5C 177.094,90.9221 177.928,89.2554 178.5,87.5C 182.775,84.8579 186.442,81.5246 189.5,77.5 Z"/></g>
<g><path style="opacity:1" fill="#552516" d="M 104.5,119.5 C 105.167,119.5 105.833,119.5 106.5,119.5C 106.5,119.833 106.5,120.167 106.5,120.5C 104.629,120.859 103.129,121.859 102,123.5C 101.617,122.944 101.117,122.611 100.5,122.5C 94.3316,124.252 87.9983,124.918 81.5,124.5C 81.5,125.5 81.5,126.5 81.5,127.5C 80.6618,127.158 80.3284,126.492 80.5,125.5C 80.4614,124.244 80.9614,123.244 82,122.5C 85.7436,123.626 89.577,123.793 93.5,123C 97.0325,121.368 100.699,120.201 104.5,119.5 Z"/></g>
<g><path style="opacity:1" fill="#5a3937" d="M 100.5,122.5 C 100.5,123.167 100.167,123.5 99.5,123.5C 94.3468,125.149 89.5135,127.482 85,130.5C 84.3828,129.551 84.5494,128.718 85.5,128C 84.9056,127.536 84.2389,127.369 83.5,127.5C 82.8333,127.5 82.1667,127.5 81.5,127.5C 81.5,126.5 81.5,125.5 81.5,124.5C 87.9983,124.918 94.3316,124.252 100.5,122.5 Z"/></g>
<g><path style="opacity:1" fill="#a2492f" d="M 125.5,111.5 C 125.821,112.817 126.154,114.151 126.5,115.5C 124.898,118.338 124.398,121.338 125,124.5C 126.356,125.38 127.856,125.714 129.5,125.5C 130.506,120.813 133.506,118.813 138.5,119.5C 136.826,124.177 135.16,128.844 133.5,133.5C 131.115,135.884 129.115,138.55 127.5,141.5C 126.5,141.167 125.833,140.5 125.5,139.5C 125.851,137.131 126.018,134.797 126,132.5C 124.187,134.761 122.687,137.095 121.5,139.5C 120.25,139.577 119.417,140.244 119,141.5C 118.833,140.5 118.667,139.5 118.5,138.5C 119.967,134.968 120.634,131.302 120.5,127.5C 121.069,121.727 122.736,116.394 125.5,111.5 Z"/></g>
<g><path style="opacity:0.984" fill="#d58a64" d="M 106.5,120.5 C 105.352,122.755 103.686,124.588 101.5,126C 102.793,126.49 104.127,126.657 105.5,126.5C 101.664,128.465 97.6635,130.131 93.5,131.5C 95.9092,129.098 97.9092,126.431 99.5,123.5C 100.167,123.5 100.5,123.167 100.5,122.5C 101.117,122.611 101.617,122.944 102,123.5C 103.129,121.859 104.629,120.859 106.5,120.5 Z"/></g>
<g><path style="opacity:1" fill="#05020e" d="M 202.5,124.5 C 202.5,124.833 202.5,125.167 202.5,125.5C 202.663,127.857 202.497,130.19 202,132.5C 201.586,132.043 201.086,131.709 200.5,131.5C 195.968,133.928 191.635,136.595 187.5,139.5C 186.637,140.463 185.97,140.463 185.5,139.5C 186.763,137.971 187.763,136.305 188.5,134.5C 191.833,131.336 195.333,128.336 199,125.5C 199.915,126.328 200.581,127.328 201,128.5C 201.21,126.942 201.71,125.609 202.5,124.5 Z"/></g>
<g><path style="opacity:1" fill="#9c7a76" d="M 141.5,125.5 C 140.92,127.749 139.587,129.415 137.5,130.5C 138.08,128.251 139.413,126.585 141.5,125.5 Z"/></g>
<g><path style="opacity:1" fill="#944f42" d="M 187.5,125.5 C 186.306,126.272 185.306,127.272 184.5,128.5C 179.677,129.774 175.01,131.441 170.5,133.5C 169.176,134.85 168.176,134.683 167.5,133C 174.007,117.944 172.34,116.777 162.5,129.5C 162.423,126.988 163.423,124.988 165.5,123.5C 167.381,121.266 169.715,119.933 172.5,119.5C 172.5,123.659 172,127.659 171,131.5C 176.574,129.57 182.074,127.57 187.5,125.5 Z"/></g>
<g><path style="opacity:1" fill="#1a1730" d="M 198.5,120.5 C 201.142,120.488 202.475,121.821 202.5,124.5C 201.71,125.609 201.21,126.942 201,128.5C 200.581,127.328 199.915,126.328 199,125.5C 195.333,128.336 191.833,131.336 188.5,134.5C 188.53,133.503 188.03,132.836 187,132.5C 183.51,132.909 180.843,134.575 179,137.5C 177.989,136.663 176.822,136.33 175.5,136.5C 175.733,139.954 174.4,140.954 171.5,139.5C 175.233,135.132 179.566,131.465 184.5,128.5C 185.306,127.272 186.306,126.272 187.5,125.5C 189.068,124.131 190.901,123.131 193,122.5C 193.333,123.167 193.667,123.833 194,124.5C 194.876,122.365 196.376,121.031 198.5,120.5 Z"/></g>
<g><path style="opacity:1" fill="#8f5246" d="M 143.5,122.5 C 145.117,123.589 145.95,125.256 146,127.5C 146.708,126.619 147.542,125.953 148.5,125.5C 145.422,130.653 142.589,135.986 140,141.5C 139.333,139.833 139.333,138.167 140,136.5C 141.289,134.355 142.122,132.022 142.5,129.5C 143.218,127.863 143.384,126.197 143,124.5C 142.617,125.056 142.117,125.389 141.5,125.5C 141.427,123.973 142.094,122.973 143.5,122.5 Z"/></g>
<g><path style="opacity:0.627" fill="#bb866c" d="M 79.5,125.5 C 79.8333,125.5 80.1667,125.5 80.5,125.5C 80.3284,126.492 80.6618,127.158 81.5,127.5C 82.1667,127.5 82.8333,127.5 83.5,127.5C 80.6999,128.413 79.3666,130.413 79.5,133.5C 81.7812,133.077 83.4479,133.744 84.5,135.5C 84.6633,137.857 84.4966,140.19 84,142.5C 83.6174,143.056 83.1174,143.389 82.5,143.5C 82.5,142.833 82.5,142.167 82.5,141.5C 83.4614,139.735 83.7947,137.735 83.5,135.5C 80.7892,135.185 78.4559,135.852 76.5,137.5C 77.4876,133.516 78.4876,129.516 79.5,125.5 Z"/></g>
<g><path style="opacity:1" fill="#161b3a" d="M 188.5,134.5 C 187.763,136.305 186.763,137.971 185.5,139.5C 185.97,140.463 186.637,140.463 187.5,139.5C 190.177,140.014 192.51,139.014 194.5,136.5C 195.931,136.977 197.264,137.643 198.5,138.5C 196.794,140.612 195.461,142.945 194.5,145.5C 193.808,144.975 193.308,144.308 193,143.5C 192.261,144.574 191.261,145.241 190,145.5C 185.564,144.638 185.397,145.472 189.5,148C 188.944,150.237 187.944,152.237 186.5,154C 189.474,156.018 190.474,155.351 189.5,152C 191.517,149.689 192.851,150.023 193.5,153C 192.495,154.672 191.161,156.005 189.5,157C 190.77,157.9 191.77,159.066 192.5,160.5C 193.086,160.291 193.586,159.957 194,159.5C 196.427,160.781 198.927,161.781 201.5,162.5C 201.351,163.552 201.517,164.552 202,165.5C 202.333,165.167 202.667,164.833 203,164.5C 203.333,165.5 203.667,166.5 204,167.5C 205.905,168.158 207.405,169.325 208.5,171C 208.167,171.333 207.833,171.667 207.5,172C 209.82,173.488 209.987,175.321 208,177.5C 207.51,176.207 207.343,174.873 207.5,173.5C 205.473,173.338 203.473,173.505 201.5,174C 202.308,174.308 202.975,174.808 203.5,175.5C 202.833,175.833 202.167,176.167 201.5,176.5C 202.52,178.432 202.687,180.432 202,182.5C 201.333,178.5 200.667,178.5 200,182.5C 198.561,180.725 197.561,178.725 197,176.5C 196.667,177.167 196.333,177.833 196,178.5C 195.333,177.167 194.333,176.167 193,175.5C 192.778,178.737 192.944,181.737 193.5,184.5C 192.91,185.799 191.91,186.632 190.5,187C 191.833,189.667 191.833,192.333 190.5,195C 194.006,197.025 197.339,199.192 200.5,201.5C 195.795,204.034 195.795,205.367 200.5,205.5C 200.343,206.873 200.51,208.207 201,209.5C 201.308,208.692 201.808,208.025 202.5,207.5C 203.292,209.465 203.959,211.465 204.5,213.5C 203.726,214.711 202.893,214.711 202,213.5C 201.508,214.549 201.674,215.549 202.5,216.5C 199.466,217.277 196.8,218.611 194.5,220.5C 196.291,221.17 197.958,221.837 199.5,222.5C 183.167,222.5 166.833,222.5 150.5,222.5C 151.823,220.529 153.156,218.529 154.5,216.5C 151.208,213.39 150.542,210.057 152.5,206.5C 149.833,203.167 149.833,199.833 152.5,196.5C 150.404,196.548 148.238,196.548 146,196.5C 145.764,198.119 144.931,199.119 143.5,199.5C 143.423,198.25 142.756,197.417 141.5,197C 141.833,196.667 142.167,196.333 142.5,196C 140.323,194.798 137.989,194.298 135.5,194.5C 133.518,191.863 130.852,190.53 127.5,190.5C 131,189.831 134.667,189.664 138.5,190C 136.665,189.072 136.332,187.906 137.5,186.5C 134.575,185.051 131.742,183.385 129,181.5C 128.138,183.087 127.471,184.754 127,186.5C 125.318,185.135 125.151,183.635 126.5,182C 123.371,181.883 122.205,180.383 123,177.5C 124.545,177.366 126.212,177.7 128,178.5C 128.945,178.905 129.612,179.572 130,180.5C 131.645,180.307 133.479,180.14 135.5,180C 135.167,179.667 134.833,179.333 134.5,179C 136.183,176.986 138.183,175.32 140.5,174C 139.044,173.577 138.544,172.744 139,171.5C 140.299,171.034 141.799,171.034 143.5,171.5C 144.044,173.58 144.878,175.58 146,177.5C 146.895,175.196 147.729,172.862 148.5,170.5C 149.086,170.709 149.586,171.043 150,171.5C 150.5,170 151,168.5 151.5,167C 149.818,165.299 148.318,163.132 147,160.5C 147.032,156.498 147.699,156.498 149,160.5C 149.29,158.048 149.956,155.715 151,153.5C 152.789,155.229 154.956,155.896 157.5,155.5C 157.579,154.07 157.246,152.736 156.5,151.5C 158.084,150.711 159.751,149.378 161.5,147.5C 164.52,144.484 167.854,141.817 171.5,139.5C 174.4,140.954 175.733,139.954 175.5,136.5C 176.822,136.33 177.989,136.663 179,137.5C 180.843,134.575 183.51,132.909 187,132.5C 188.03,132.836 188.53,133.503 188.5,134.5 Z"/></g>
<g><path style="opacity:1" fill="#a5a3bc" d="M 142.5,129.5 C 138.473,132.86 134.806,136.527 131.5,140.5C 130.957,140.44 130.624,140.107 130.5,139.5C 132.252,137.754 133.585,135.754 134.5,133.5C 135.272,132.306 136.272,131.306 137.5,130.5C 139.587,129.415 140.92,127.749 141.5,125.5C 142.117,125.389 142.617,125.056 143,124.5C 143.384,126.197 143.218,127.863 142.5,129.5 Z"/></g>
<g><path style="opacity:1" fill="#8a4a40" d="M 159.5,122.5 C 159.038,126.303 158.038,129.969 156.5,133.5C 157.5,133.5 158.5,133.5 159.5,133.5C 156.081,137.331 153.414,141.665 151.5,146.5C 151.903,137.956 154.57,129.956 159.5,122.5 Z"/></g>
<g><path style="opacity:0.898" fill="#bb8a7c" d="M 125.5,139.5 C 125.167,139.5 124.833,139.5 124.5,139.5C 124.631,138.761 124.464,138.094 124,137.5C 123.292,138.381 122.458,139.047 121.5,139.5C 122.687,137.095 124.187,134.761 126,132.5C 126.018,134.797 125.851,137.131 125.5,139.5 Z"/></g>
<g><path style="opacity:1" fill="#f4caa8" d="M 80.5,104.5 C 82.2413,106.395 83.2413,108.728 83.5,111.5C 82.3389,114.102 81.1723,116.769 80,119.5C 79.5045,121.473 79.3379,123.473 79.5,125.5C 78.4876,129.516 77.4876,133.516 76.5,137.5C 74.9867,139.516 74.1534,141.849 74,144.5C 72.0706,148.036 69.9039,151.369 67.5,154.5C 73.5648,140.715 77.5648,126.382 79.5,111.5C 79.1667,110.5 78.5,109.833 77.5,109.5C 76.2096,111.657 75.3763,113.99 75,116.5C 74.6174,115.944 74.1174,115.611 73.5,115.5C 74.3584,112.093 75.525,108.76 77,105.5C 78.0113,104.663 79.1779,104.33 80.5,104.5 Z"/></g>
<g><path style="opacity:1" fill="#d3a085" d="M 113.5,123.5 C 104.391,138.618 93.3907,152.284 80.5,164.5C 80.5,163.833 80.1667,163.5 79.5,163.5C 89.4699,151.191 99.4699,138.858 109.5,126.5C 110.5,126.167 111.167,125.5 111.5,124.5C 111.842,123.662 112.508,123.328 113.5,123.5 Z"/></g>
<g><path style="opacity:1" fill="#9c868b" d="M 133.5,133.5 C 133.833,133.5 134.167,133.5 134.5,133.5C 133.585,135.754 132.252,137.754 130.5,139.5C 130.624,140.107 130.957,140.44 131.5,140.5C 129.628,143.582 127.295,146.249 124.5,148.5C 123.833,148.5 123.5,148.833 123.5,149.5C 122.761,149.631 122.094,149.464 121.5,149C 122.099,147.378 122.766,145.878 123.5,144.5C 123.351,145.552 123.517,146.552 124,147.5C 125.394,145.612 126.56,143.612 127.5,141.5C 129.115,138.55 131.115,135.884 133.5,133.5 Z"/></g>
<g><path style="opacity:1" fill="#120509" d="M 170.5,133.5 C 169.957,137.717 167.79,138.384 164,135.5C 157.842,137.814 158.008,139.481 164.5,140.5C 164.281,139.325 164.614,138.325 165.5,137.5C 166.583,138.365 166.749,139.365 166,140.5C 162.092,144.532 157.259,146.532 151.5,146.5C 153.414,141.665 156.081,137.331 159.5,133.5C 160.488,132.205 161.488,130.872 162.5,129.5C 172.34,116.777 174.007,117.944 167.5,133C 168.176,134.683 169.176,134.85 170.5,133.5 Z"/></g>
<g><path style="opacity:1" fill="#734d4a" d="M 124.5,139.5 C 124.833,139.5 125.167,139.5 125.5,139.5C 125.833,140.5 126.5,141.167 127.5,141.5C 126.56,143.612 125.394,145.612 124,147.5C 123.517,146.552 123.351,145.552 123.5,144.5C 123.629,142.784 123.962,141.117 124.5,139.5 Z"/></g>
<g><path style="opacity:1" fill="#10070e" d="M 163.5,111.5 C 162.165,115.172 160.832,118.838 159.5,122.5C 154.57,129.956 151.903,137.956 151.5,146.5C 157.259,146.532 162.092,144.532 166,140.5C 166.749,139.365 166.583,138.365 165.5,137.5C 164.614,138.325 164.281,139.325 164.5,140.5C 158.008,139.481 157.842,137.814 164,135.5C 167.79,138.384 169.957,137.717 170.5,133.5C 175.01,131.441 179.677,129.774 184.5,128.5C 179.566,131.465 175.233,135.132 171.5,139.5C 167.854,141.817 164.52,144.484 161.5,147.5C 147.197,150.713 133.53,155.713 120.5,162.5C 118.815,164.571 117.148,166.571 115.5,168.5C 115.5,167.833 115.5,167.167 115.5,166.5C 116.736,164.351 117.736,162.018 118.5,159.5C 120.18,156.14 121.847,152.807 123.5,149.5C 124.167,149.5 124.5,149.167 124.5,148.5C 127.295,146.249 129.628,143.582 131.5,140.5C 134.806,136.527 138.473,132.86 142.5,129.5C 142.122,132.022 141.289,134.355 140,136.5C 139.333,138.167 139.333,139.833 140,141.5C 142.589,135.986 145.422,130.653 148.5,125.5C 148.557,124.391 148.89,123.391 149.5,122.5C 150.552,122.649 151.552,122.483 152.5,122C 156.036,118.296 159.702,114.796 163.5,111.5 Z"/></g>
<g><path style="opacity:1" fill="#cc9068" d="M 65.5,136.5 C 63.298,143.245 60.798,149.911 58,156.5C 57.3658,153.445 57.5325,150.445 58.5,147.5C 59.5865,143.072 61.9198,139.406 65.5,136.5 Z"/></g>
<g><path style="opacity:1" fill="#a36255" d="M 119.5,127.5 C 119.833,127.5 120.167,127.5 120.5,127.5C 120.634,131.302 119.967,134.968 118.5,138.5C 118.667,139.5 118.833,140.5 119,141.5C 119.417,140.244 120.25,139.577 121.5,139.5C 120.502,143.505 118.502,146.839 115.5,149.5C 113.952,149.179 113.285,148.179 113.5,146.5C 114.97,141.422 116.637,136.422 118.5,131.5C 119.434,130.432 119.768,129.099 119.5,127.5 Z"/></g>
<g><path style="opacity:0.91" fill="#a7807d" d="M 113.5,146.5 C 113.285,148.179 113.952,149.179 115.5,149.5C 114.333,153.147 112.166,156.147 109,158.5C 109.652,154.193 111.152,150.193 113.5,146.5 Z"/></g>
<g><path style="opacity:1" fill="#f9dfc0" d="M 67.5,154.5 C 66.6996,156.607 66.0329,158.774 65.5,161C 65.5093,162.404 66.0093,163.57 67,164.5C 71.9983,157.341 77.165,150.341 82.5,143.5C 83.1174,143.389 83.6174,143.056 84,142.5C 84.4966,140.19 84.6633,137.857 84.5,135.5C 85.2679,136.263 85.7679,137.263 86,138.5C 88.3697,135.961 90.8697,133.628 93.5,131.5C 97.6635,130.131 101.664,128.465 105.5,126.5C 106.833,126.5 108.167,126.5 109.5,126.5C 99.4699,138.858 89.4699,151.191 79.5,163.5C 75.9205,166.59 74.5872,170.59 75.5,175.5C 78.1667,175.5 80.8333,175.5 83.5,175.5C 86.6725,173.54 90.0058,173.207 93.5,174.5C 97.2216,171.314 101.222,168.647 105.5,166.5C 106.167,166.5 106.833,166.5 107.5,166.5C 106.058,167.82 105.392,169.486 105.5,171.5C 103.732,173.508 102.066,175.674 100.5,178C 96.0469,179.726 91.7136,181.726 87.5,184C 86.4654,187.24 84.7988,190.074 82.5,192.5C 77.2797,198.398 73.2797,205.064 70.5,212.5C 68.1373,215.549 66.1373,218.882 64.5,222.5C 53.5,222.5 42.5,222.5 31.5,222.5C 31.9284,216.374 33.0951,210.374 35,204.5C 39.6432,190.593 43.9766,176.593 48,162.5C 50.651,154.352 54.151,146.685 58.5,139.5C 58.5,142.167 58.5,144.833 58.5,147.5C 57.5325,150.445 57.3658,153.445 58,156.5C 60.798,149.911 63.298,143.245 65.5,136.5C 66.8923,134.727 68.059,132.727 69,130.5C 70.3519,125.419 71.8519,120.419 73.5,115.5C 74.1174,115.611 74.6174,115.944 75,116.5C 75.3763,113.99 76.2096,111.657 77.5,109.5C 78.5,109.833 79.1667,110.5 79.5,111.5C 77.5648,126.382 73.5648,140.715 67.5,154.5 Z"/></g>
<g><path style="opacity:1" fill="#d07e52" d="M 82.5,141.5 C 82.5,142.167 82.5,142.833 82.5,143.5C 77.165,150.341 71.9983,157.341 67,164.5C 66.0093,163.57 65.5093,162.404 65.5,161C 66.0329,158.774 66.6996,156.607 67.5,154.5C 69.9039,151.369 72.0706,148.036 74,144.5C 74.1534,141.849 74.9867,139.516 76.5,137.5C 78.4559,135.852 80.7892,135.185 83.5,135.5C 83.7947,137.735 83.4614,139.735 82.5,141.5 Z"/></g>
<g><path style="opacity:1" fill="#f08850" d="M 82.5,141.5 C 81.2921,142.234 79.9587,142.567 78.5,142.5C 78.5,144.167 78.5,145.833 78.5,147.5C 77.5,147.5 76.5,147.5 75.5,147.5C 75.719,148.675 75.3857,149.675 74.5,150.5C 74.1667,150.167 73.8333,149.833 73.5,149.5C 74.7653,146.204 75.9319,142.871 77,139.5C 78.5059,137.826 80.3393,136.826 82.5,136.5C 82.5,138.167 82.5,139.833 82.5,141.5 Z"/></g>
<g><path style="opacity:1" fill="#cc9174" d="M 118.5,159.5 C 117.736,162.018 116.736,164.351 115.5,166.5C 115.762,165.022 115.429,163.689 114.5,162.5C 111.941,163.608 109.608,164.941 107.5,166.5C 106.833,166.5 106.167,166.5 105.5,166.5C 105.5,166.167 105.5,165.833 105.5,165.5C 109.45,162.692 113.783,160.692 118.5,159.5 Z"/></g>
<g><path style="opacity:1" fill="#161c37" d="M 161.5,147.5 C 159.751,149.378 158.084,150.711 156.5,151.5C 157.246,152.736 157.579,154.07 157.5,155.5C 154.956,155.896 152.789,155.229 151,153.5C 149.956,155.715 149.29,158.048 149,160.5C 147.699,156.498 147.032,156.498 147,160.5C 148.318,163.132 149.818,165.299 151.5,167C 151,168.5 150.5,170 150,171.5C 149.586,171.043 149.086,170.709 148.5,170.5C 147.729,172.862 146.895,175.196 146,177.5C 144.878,175.58 144.044,173.58 143.5,171.5C 141.799,171.034 140.299,171.034 139,171.5C 138.544,172.744 139.044,173.577 140.5,174C 138.183,175.32 136.183,176.986 134.5,179C 134.833,179.333 135.167,179.667 135.5,180C 133.479,180.14 131.645,180.307 130,180.5C 129.612,179.572 128.945,178.905 128,178.5C 126.212,177.7 124.545,177.366 123,177.5C 122.205,180.383 123.371,181.883 126.5,182C 125.151,183.635 125.318,185.135 127,186.5C 127.471,184.754 128.138,183.087 129,181.5C 131.742,183.385 134.575,185.051 137.5,186.5C 136.332,187.906 136.665,189.072 138.5,190C 134.667,189.664 131,189.831 127.5,190.5C 125.518,189.183 123.518,189.183 121.5,190.5C 119.945,190.278 118.611,189.611 117.5,188.5C 114.161,190.235 111.494,189.568 109.5,186.5C 107.936,187.186 106.269,187.019 104.5,186C 106.235,183.363 107.568,180.53 108.5,177.5C 110.341,176.77 112.175,176.103 114,175.5C 114.662,173.187 115.162,170.854 115.5,168.5C 117.148,166.571 118.815,164.571 120.5,162.5C 133.53,155.713 147.197,150.713 161.5,147.5 Z"/></g>
<g><path style="opacity:1" fill="#ca8b6a" d="M 79.5,163.5 C 80.1667,163.5 80.5,163.833 80.5,164.5C 78.9939,167.778 79.3273,170.778 81.5,173.5C 82.1667,174.167 82.8333,174.833 83.5,175.5C 80.8333,175.5 78.1667,175.5 75.5,175.5C 74.5872,170.59 75.9205,166.59 79.5,163.5 Z"/></g>
<g><path style="opacity:1" fill="#e48858" d="M 115.5,166.5 C 115.5,167.167 115.5,167.833 115.5,168.5C 113.477,171.52 110.81,173.854 107.5,175.5C 105.824,174.817 105.157,173.483 105.5,171.5C 105.392,169.486 106.058,167.82 107.5,166.5C 109.608,164.941 111.941,163.608 114.5,162.5C 115.429,163.689 115.762,165.022 115.5,166.5 Z"/></g>
<g><path style="opacity:1" fill="#e0cbb9" d="M 105.5,165.5 C 105.5,165.833 105.5,166.167 105.5,166.5C 101.222,168.647 97.2216,171.314 93.5,174.5C 90.0058,173.207 86.6725,173.54 83.5,175.5C 82.8333,174.833 82.1667,174.167 81.5,173.5C 90.0282,172.369 98.0282,169.702 105.5,165.5 Z"/></g>
<g><path style="opacity:1" fill="#141535" d="M 202.5,125.5 C 206.615,136.768 211.115,148.102 216,159.5C 218.508,167.542 220.675,175.542 222.5,183.5C 222.5,196.5 222.5,209.5 222.5,222.5C 214.833,222.5 207.167,222.5 199.5,222.5C 197.958,221.837 196.291,221.17 194.5,220.5C 196.8,218.611 199.466,217.277 202.5,216.5C 201.674,215.549 201.508,214.549 202,213.5C 202.893,214.711 203.726,214.711 204.5,213.5C 203.959,211.465 203.292,209.465 202.5,207.5C 201.808,208.025 201.308,208.692 201,209.5C 200.51,208.207 200.343,206.873 200.5,205.5C 195.795,205.367 195.795,204.034 200.5,201.5C 197.339,199.192 194.006,197.025 190.5,195C 191.833,192.333 191.833,189.667 190.5,187C 191.91,186.632 192.91,185.799 193.5,184.5C 192.944,181.737 192.778,178.737 193,175.5C 194.333,176.167 195.333,177.167 196,178.5C 196.333,177.833 196.667,177.167 197,176.5C 197.561,178.725 198.561,180.725 200,182.5C 200.667,178.5 201.333,178.5 202,182.5C 202.687,180.432 202.52,178.432 201.5,176.5C 202.167,176.167 202.833,175.833 203.5,175.5C 202.975,174.808 202.308,174.308 201.5,174C 203.473,173.505 205.473,173.338 207.5,173.5C 207.343,174.873 207.51,176.207 208,177.5C 209.987,175.321 209.82,173.488 207.5,172C 207.833,171.667 208.167,171.333 208.5,171C 207.405,169.325 205.905,168.158 204,167.5C 203.667,166.5 203.333,165.5 203,164.5C 202.667,164.833 202.333,165.167 202,165.5C 201.517,164.552 201.351,163.552 201.5,162.5C 198.927,161.781 196.427,160.781 194,159.5C 193.586,159.957 193.086,160.291 192.5,160.5C 191.77,159.066 190.77,157.9 189.5,157C 191.161,156.005 192.495,154.672 193.5,153C 192.851,150.023 191.517,149.689 189.5,152C 190.474,155.351 189.474,156.018 186.5,154C 187.944,152.237 188.944,150.237 189.5,148C 185.397,145.472 185.564,144.638 190,145.5C 191.261,145.241 192.261,144.574 193,143.5C 193.308,144.308 193.808,144.975 194.5,145.5C 195.461,142.945 196.794,140.612 198.5,138.5C 197.264,137.643 195.931,136.977 194.5,136.5C 192.51,139.014 190.177,140.014 187.5,139.5C 191.635,136.595 195.968,133.928 200.5,131.5C 201.086,131.709 201.586,132.043 202,132.5C 202.497,130.19 202.663,127.857 202.5,125.5 Z"/></g>
<g><path style="opacity:1" fill="#dc9a75" d="M 105.5,171.5 C 105.157,173.483 105.824,174.817 107.5,175.5C 106.525,177.795 105.192,179.795 103.5,181.5C 103.167,180.167 102.833,180.167 102.5,181.5C 98.736,182.881 95.0693,184.547 91.5,186.5C 88.5563,190.091 85.8897,193.758 83.5,197.5C 83.2865,195.856 83.6198,194.356 84.5,193C 83.9056,192.536 83.2389,192.369 82.5,192.5C 84.7988,190.074 86.4654,187.24 87.5,184C 91.7136,181.726 96.0469,179.726 100.5,178C 102.066,175.674 103.732,173.508 105.5,171.5 Z"/></g>
<g><path style="opacity:0.075" fill="#c3a495" d="M 56.5,131.5 C 58.2646,130.539 60.2646,130.205 62.5,130.5C 60.9091,133.352 59.5758,136.352 58.5,139.5C 54.151,146.685 50.651,154.352 48,162.5C 43.9766,176.593 39.6432,190.593 35,204.5C 33.0951,210.374 31.9284,216.374 31.5,222.5C 31.1667,222.5 30.8333,222.5 30.5,222.5C 30.0926,218.227 30.5926,213.894 32,209.5C 37.8677,188.564 44.5343,167.897 52,147.5C 54.5156,142.469 57.0156,137.469 59.5,132.5C 58.675,131.614 57.675,131.281 56.5,131.5 Z"/></g>
<g><path style="opacity:1" fill="#191a2f" d="M 115.5,168.5 C 115.162,170.854 114.662,173.187 114,175.5C 112.175,176.103 110.341,176.77 108.5,177.5C 107.568,180.53 106.235,183.363 104.5,186C 106.269,187.019 107.936,187.186 109.5,186.5C 111.494,189.568 114.161,190.235 117.5,188.5C 118.611,189.611 119.945,190.278 121.5,190.5C 123.518,189.183 125.518,189.183 127.5,190.5C 130.852,190.53 133.518,191.863 135.5,194.5C 121.933,189.251 109.267,190.751 97.5,199C 102.313,198.511 106.979,197.178 111.5,195C 117.016,194.183 122.35,194.349 127.5,195.5C 122.317,196.364 117.151,196.697 112,196.5C 108.379,198.743 105.212,201.576 102.5,205C 100.833,205.667 99.1667,205.667 97.5,205C 98.8213,203.455 98.4879,202.289 96.5,201.5C 94.8103,203.519 93.1436,205.519 91.5,207.5C 91.9022,203.088 92.7355,198.754 94,194.5C 97.0822,190.266 99.9155,185.933 102.5,181.5C 102.833,181.5 103.167,181.5 103.5,181.5C 105.192,179.795 106.525,177.795 107.5,175.5C 110.81,173.854 113.477,171.52 115.5,168.5 Z"/></g>
<g><path style="opacity:1" fill="#070510" d="M 135.5,194.5 C 136.574,195.885 137.907,197.051 139.5,198C 135.665,196.879 131.665,196.045 127.5,195.5C 122.35,194.349 117.016,194.183 111.5,195C 106.979,197.178 102.313,198.511 97.5,199C 109.267,190.751 121.933,189.251 135.5,194.5 Z"/></g>
<g><path style="opacity:1" fill="#151b36" d="M 135.5,194.5 C 137.989,194.298 140.323,194.798 142.5,196C 142.167,196.333 141.833,196.667 141.5,197C 142.756,197.417 143.423,198.25 143.5,199.5C 140.504,199.369 137.338,199.702 134,200.5C 131.684,199.533 129.351,198.533 127,197.5C 125.333,197.833 123.667,198.167 122,198.5C 121.727,200.101 121.227,201.601 120.5,203C 121.784,203.684 122.951,203.517 124,202.5C 125.325,204.981 125.825,207.481 125.5,210C 121.991,210.531 118.658,211.531 115.5,213C 119.55,214.513 123.383,214.346 127,212.5C 127.5,213.5 128,214.5 128.5,215.5C 126.234,216.314 123.9,216.814 121.5,217C 121.652,218.924 121.652,220.758 121.5,222.5C 111.5,222.5 101.5,222.5 91.5,222.5C 90.4682,217.341 90.4682,212.341 91.5,207.5C 93.1436,205.519 94.8103,203.519 96.5,201.5C 98.4879,202.289 98.8213,203.455 97.5,205C 99.1667,205.667 100.833,205.667 102.5,205C 105.212,201.576 108.379,198.743 112,196.5C 117.151,196.697 122.317,196.364 127.5,195.5C 131.665,196.045 135.665,196.879 139.5,198C 137.907,197.051 136.574,195.885 135.5,194.5 Z"/></g>
<g><path style="opacity:1" fill="#e58b57" d="M 82.5,192.5 C 83.2389,192.369 83.9056,192.536 84.5,193C 83.6198,194.356 83.2865,195.856 83.5,197.5C 82.5416,197.953 81.7083,198.619 81,199.5C 79.3384,204.296 77.5051,208.963 75.5,213.5C 75.1667,213.5 74.8333,213.5 74.5,213.5C 72.901,213.768 71.5676,213.434 70.5,212.5C 73.2797,205.064 77.2797,198.398 82.5,192.5 Z"/></g>
<g><path style="opacity:1" fill="#171e3a" d="M 150.5,222.5 C 140.833,222.5 131.167,222.5 121.5,222.5C 121.652,220.758 121.652,218.924 121.5,217C 123.9,216.814 126.234,216.314 128.5,215.5C 128,214.5 127.5,213.5 127,212.5C 123.383,214.346 119.55,214.513 115.5,213C 118.658,211.531 121.991,210.531 125.5,210C 125.825,207.481 125.325,204.981 124,202.5C 122.951,203.517 121.784,203.684 120.5,203C 121.227,201.601 121.727,200.101 122,198.5C 123.667,198.167 125.333,197.833 127,197.5C 129.351,198.533 131.684,199.533 134,200.5C 137.338,199.702 140.504,199.369 143.5,199.5C 144.931,199.119 145.764,198.119 146,196.5C 148.238,196.548 150.404,196.548 152.5,196.5C 149.833,199.833 149.833,203.167 152.5,206.5C 150.542,210.057 151.208,213.39 154.5,216.5C 153.156,218.529 151.823,220.529 150.5,222.5 Z"/></g>
<g><path style="opacity:1" fill="#dba48b" d="M 83.5,197.5 C 82.3847,203.731 79.7181,209.064 75.5,213.5C 77.5051,208.963 79.3384,204.296 81,199.5C 81.7083,198.619 82.5416,197.953 83.5,197.5 Z"/></g>
<g><path style="opacity:0.012" fill="#f6ded0" d="M 74.5,213.5 C 74.8333,213.5 75.1667,213.5 75.5,213.5C 75.5,215.5 74.5,216.5 72.5,216.5C 73.1667,215.5 73.8333,214.5 74.5,213.5 Z"/></g>
<g><path style="opacity:1" fill="#d18c6a" d="M 70.5,212.5 C 71.5676,213.434 72.901,213.768 74.5,213.5C 73.8333,214.5 73.1667,215.5 72.5,216.5C 71.4706,218.517 70.4706,220.517 69.5,222.5C 67.8333,222.5 66.1667,222.5 64.5,222.5C 66.1373,218.882 68.1373,215.549 70.5,212.5 Z"/></g>
</svg>
